<svg width="15" height="12" viewBox="0 0 15 12" fill="none" xmlns="http://www.w3.org/2000/svg">
<path d="M12.2937 1.50983C11.3778 1.0895 10.4113 0.789498 9.41837 0.617312C9.40937 0.615797 9.40013 0.617106 9.39191 0.621058C9.38369 0.62501 9.37689 0.631412 9.37246 0.639382C9.24799 0.860083 9.11027 1.14876 9.01404 1.37476C7.94374 1.21233 6.85505 1.21233 5.78475 1.37476C5.67741 1.123 5.55598 0.877486 5.42103 0.639382C5.4165 0.631499 5.4097 0.625171 5.4015 0.621232C5.39331 0.617292 5.38411 0.615926 5.37513 0.617312C4.38197 0.788576 3.4153 1.08873 2.49984 1.50983C2.492 1.51282 2.48545 1.51843 2.4813 1.52572C0.650365 4.26152 0.148049 6.93024 0.394352 9.56541C0.395234 9.57777 0.40318 9.59013 0.41289 9.59807C1.47907 10.3878 2.67162 10.9908 3.93969 11.3813C3.94864 11.3842 3.95826 11.3841 3.96715 11.381C3.97604 11.378 3.98374 11.3722 3.98913 11.3646C4.26103 10.9938 4.50292 10.6027 4.71126 10.1913C4.7156 10.1828 4.71709 10.1732 4.7155 10.1638C4.71391 10.1544 4.70932 10.1458 4.70243 10.1392C4.69787 10.1349 4.69246 10.1316 4.68654 10.1295C4.30619 9.98334 3.93783 9.80772 3.5848 9.60425C3.57494 9.59866 3.56761 9.5895 3.56432 9.57865C3.56104 9.5678 3.56205 9.55611 3.56715 9.54599C3.57015 9.53941 3.57469 9.53366 3.58039 9.52921C3.65454 9.4736 3.7287 9.41533 3.79932 9.35706C3.80556 9.35205 3.81305 9.34882 3.82098 9.34774C3.82891 9.34665 3.83699 9.34774 3.84435 9.35089C6.15641 10.4067 8.65916 10.4067 10.943 9.35089C10.9506 9.34758 10.959 9.34641 10.9672 9.3475C10.9755 9.34859 10.9832 9.3519 10.9898 9.35706C11.0604 9.41533 11.1345 9.4736 11.2087 9.52921C11.2147 9.5336 11.2195 9.53942 11.2227 9.54613C11.226 9.55284 11.2275 9.56025 11.2271 9.56768C11.2268 9.57511 11.2246 9.58235 11.2207 9.58873C11.2169 9.59511 11.2116 9.60044 11.2052 9.60425C10.8529 9.80958 10.4841 9.98499 10.1025 10.1286C10.0965 10.1308 10.0909 10.1344 10.0863 10.1389C10.0818 10.1435 10.0783 10.149 10.0761 10.1551C10.074 10.161 10.0732 10.1673 10.0737 10.1735C10.0741 10.1797 10.0758 10.1858 10.0787 10.1913C10.2906 10.6018 10.5333 10.9938 10.8 11.3646C10.8053 11.3722 10.813 11.378 10.8219 11.381C10.8308 11.3841 10.8404 11.3842 10.8494 11.3813C12.1196 10.992 13.3141 10.389 14.3815 9.59807C14.3868 9.59437 14.3913 9.58951 14.3945 9.58386C14.3977 9.5782 14.3996 9.57189 14.4 9.56541C14.6949 6.51885 13.9065 3.87221 12.3113 1.5266C12.3097 1.52273 12.3073 1.51923 12.3043 1.51634C12.3012 1.51345 12.2976 1.51123 12.2937 1.50983ZM5.05644 7.96047C4.3599 7.96047 3.78696 7.32132 3.78696 6.53739C3.78696 5.75258 4.34931 5.11343 5.05644 5.11343C5.76886 5.11343 6.3365 5.75788 6.32591 6.53739C6.32591 7.32132 5.76356 7.96047 5.05644 7.96047ZM9.74942 7.96047C9.05377 7.96047 8.47995 7.32132 8.47995 6.53739C8.47995 5.75258 9.04229 5.11343 9.74942 5.11343C10.4618 5.11343 11.0304 5.75788 11.0189 6.53739C11.0189 7.32132 10.4618 7.96047 9.74942 7.96047Z" fill="#002568" fill-opacity="0.5"/>
</svg>
