<svg width="12" height="12" viewBox="0 0 12 12" fill="none" xmlns="http://www.w3.org/2000/svg">
<path fill-rule="evenodd" clip-rule="evenodd" d="M6.09375 0.703125C3.16723 0.703125 0.796875 3.13343 0.796875 6.13398C0.796875 8.53713 2.31311 10.5669 4.41861 11.2865C4.68346 11.334 4.78277 11.1711 4.78277 11.0285C4.78277 10.8996 4.77615 10.4719 4.77615 10.017C3.44531 10.2682 3.10102 9.6844 2.99508 9.37891C2.93549 9.22277 2.67727 8.74079 2.45215 8.6118C2.26676 8.50998 2.00191 8.2588 2.44553 8.25201C2.86266 8.24522 3.16061 8.64575 3.25992 8.80867C3.73664 9.63009 4.49807 9.39928 4.80264 9.25672C4.84898 8.90371 4.98803 8.66611 5.14031 8.53034C3.96176 8.39457 2.73023 7.92616 2.73023 5.84886C2.73023 5.25825 2.93549 4.76948 3.27316 4.38932C3.2202 4.25355 3.0348 3.69688 3.32613 2.95014C3.32613 2.95014 3.76975 2.80758 4.78277 3.5068C5.20652 3.38461 5.65676 3.32351 6.10699 3.32351C6.55723 3.32351 7.00746 3.38461 7.43121 3.5068C8.44424 2.80079 8.88785 2.95014 8.88785 2.95014C9.17918 3.69688 8.99379 4.25355 8.94082 4.38932C9.2785 4.76948 9.48375 5.25146 9.48375 5.84886C9.48375 7.93295 8.24561 8.39457 7.06705 8.53034C7.25906 8.70006 7.42459 9.02591 7.42459 9.53505C7.42459 10.2614 7.41797 10.8452 7.41797 11.0285C7.41797 11.1711 7.51729 11.3408 7.78213 11.2865C8.83364 10.9225 9.74735 10.2296 10.3947 9.30531C11.042 8.38102 11.3903 7.27187 11.3906 6.13398C11.3906 3.13343 9.02027 0.703125 6.09375 0.703125Z" fill="#002568" fill-opacity="0.5"/>
</svg>
