<svg width="36" height="36" viewBox="0 0 36 36" fill="none" xmlns="http://www.w3.org/2000/svg">
<g clip-path="url(#clip0_305_18012)">
<path d="M33 19.0001C32.8684 19.0008 32.738 18.9756 32.6161 18.9258C32.4943 18.8761 32.3835 18.8028 32.29 18.7101L18 4.41007L3.71003 18.7101C3.51873 18.8739 3.27265 18.9595 3.02097 18.9498C2.7693 18.9401 2.53056 18.8357 2.35246 18.6576C2.17437 18.4795 2.07004 18.2408 2.06032 17.9891C2.05059 17.7374 2.1362 17.4914 2.30003 17.3001L17.3 2.30007C17.4874 2.11382 17.7408 2.00928 18.005 2.00928C18.2692 2.00928 18.5227 2.11382 18.71 2.30007L33.71 17.3001C33.8476 17.4405 33.9408 17.6183 33.9779 17.8113C34.015 18.0044 33.9944 18.2041 33.9186 18.3855C33.8429 18.5669 33.7153 18.7219 33.552 18.8312C33.3886 18.9405 33.1966 18.9993 33 19.0001Z" fill="#002568"/>
<path d="M18 7.79004L6 19.83V32C6 32.5305 6.21071 33.0392 6.58579 33.4143C6.96086 33.7893 7.46957 34 8 34H15V24H21V34H28C28.5304 34 29.0391 33.7893 29.4142 33.4143C29.7893 33.0392 30 32.5305 30 32V19.76L18 7.79004Z" fill="#002568"/>
</g>
<defs>
<clipPath id="clip0_305_18012">
<rect width="36" height="36" fill="white"/>
</clipPath>
</defs>
</svg>
