<svg width="230" height="41" viewBox="0 0 230 41" fill="none" xmlns="http://www.w3.org/2000/svg">
<g clip-path="url(#clip0_341_17497)">
<path d="M86.6628 10.0567C86.6628 10.4779 86.5165 10.8399 86.2238 11.1429C85.931 11.4459 85.5741 11.5974 85.153 11.5974C84.7319 11.5974 84.3698 11.4459 84.0668 11.1429C83.7638 10.8399 83.6123 10.4804 83.6123 10.0567C83.6123 9.63305 83.7638 9.2787 84.0668 8.98597C84.3698 8.69324 84.7319 8.54688 85.153 8.54688C85.5741 8.54688 85.931 8.69324 86.2238 8.98597C86.5165 9.2787 86.6628 9.63562 86.6628 10.0567V10.0567ZM86.3059 27.0119H83.9692V13.8211H86.3059V27.0119Z" fill="#002568"/>
<path d="M97.1062 27.5076C96.1176 27.5076 95.1906 27.3253 94.3304 26.9581C93.4702 26.5909 92.7178 26.0876 92.0759 25.4457C91.4339 24.8037 90.9255 24.0539 90.5506 23.1912C90.1757 22.3309 89.9883 21.404 89.9883 20.4154C89.9883 19.4268 90.1757 18.528 90.5506 17.6678C90.9255 16.8076 91.4339 16.0553 92.0759 15.4133C92.7178 14.7714 93.4676 14.2629 94.3304 13.888C95.1906 13.5131 96.1176 13.3257 97.1062 13.3257C98.0948 13.3257 98.9935 13.5131 99.8537 13.888C100.714 14.2629 101.466 14.7714 102.108 15.4133C102.75 16.0553 103.259 16.805 103.634 17.6678C104.008 18.528 104.196 19.4447 104.196 20.4154C104.196 21.386 104.008 22.3309 103.634 23.1912C103.259 24.0514 102.75 24.8037 102.108 25.4457C101.466 26.0876 100.717 26.5909 99.8537 26.9581C98.9935 27.3253 98.0768 27.5076 97.1062 27.5076ZM97.1062 15.6085C96.4463 15.6085 95.8223 15.7317 95.2369 15.9782C94.6514 16.2247 94.1455 16.5688 93.7244 17.0079C93.3033 17.447 92.9695 17.9606 92.7204 18.546C92.4739 19.1315 92.3506 19.7554 92.3506 20.4154C92.3506 21.0753 92.4739 21.6967 92.7204 22.2847C92.9669 22.8702 93.3007 23.3786 93.7244 23.81C94.1455 24.2414 94.6488 24.5803 95.2369 24.8268C95.8223 25.0733 96.4463 25.1966 97.1062 25.1966C97.7661 25.1966 98.385 25.0733 98.9602 24.8268C99.5379 24.5803 100.041 24.2414 100.473 23.81C100.904 23.3786 101.243 22.8702 101.489 22.2847C101.736 21.6993 101.859 21.0753 101.859 20.4154C101.859 19.7554 101.736 19.134 101.489 18.546C101.243 17.9606 100.904 17.447 100.473 17.0079C100.041 16.5688 99.5379 16.2247 98.9602 15.9782C98.3824 15.7317 97.7636 15.6085 97.1062 15.6085V15.6085Z" fill="#002568"/>
<path d="M119.613 17.7782C119.649 17.9811 119.677 18.1583 119.695 18.3149C119.713 18.4715 119.724 18.6128 119.724 18.7412V27.012H117.387V19.2342C117.387 18.9415 117.353 18.5845 117.292 18.1634C117.228 17.7423 117.086 17.3391 116.866 16.954C116.645 16.5688 116.316 16.2401 115.877 15.9654C115.438 15.6906 114.85 15.552 114.118 15.552C113.24 15.552 112.539 15.6855 112.015 15.95C111.494 16.217 111.091 16.5354 110.806 16.9129C110.521 17.2878 110.333 17.6653 110.243 18.0402C110.151 18.4151 110.097 18.7129 110.079 18.9337V27.012H107.742V13.8213H110.079V15.0025C110.097 15.0025 110.192 14.91 110.366 14.7277C110.541 14.5454 110.798 14.3528 111.137 14.1499C111.476 13.9497 111.897 13.7622 112.4 13.5876C112.903 13.413 113.486 13.3257 114.146 13.3257C115.153 13.3257 115.993 13.4772 116.66 13.7802C117.328 14.0832 117.87 14.4581 118.28 14.9074C118.694 15.3568 118.999 15.8421 119.202 16.3634C119.403 16.8846 119.541 17.3571 119.616 17.7782H119.613Z" fill="#002568"/>
<path d="M145.897 21.0494C145.969 21.6348 146.13 22.1843 146.377 22.6979C146.623 23.2114 146.934 23.6505 147.311 24.0177C147.686 24.3849 148.118 24.6777 148.603 24.8959C149.088 25.1167 149.607 25.2246 150.157 25.2246C150.999 25.2246 151.764 25.0243 152.452 24.6212C153.14 24.218 153.692 23.6788 154.114 23.0009L156.037 24.2386C155.413 25.2272 154.589 26.0206 153.564 26.6163C152.537 27.2121 151.402 27.5099 150.157 27.5099C149.296 27.5099 148.485 27.3456 147.725 27.0143C146.965 26.6857 146.292 26.2312 145.704 25.6534C145.119 25.0757 144.636 24.3952 144.261 23.6069C143.886 22.8186 143.66 21.9686 143.588 21.0519C143.588 20.9595 143.583 20.8593 143.575 20.7489C143.565 20.6385 143.562 20.5281 143.562 20.4203C143.562 19.8348 143.627 19.2853 143.755 18.7717C143.919 18.0014 144.204 17.2824 144.608 16.6148C145.011 15.9471 145.491 15.3694 146.051 14.8841C146.608 14.3988 147.242 14.0187 147.946 13.744C148.652 13.4692 149.389 13.3306 150.157 13.3306C150.924 13.3306 151.664 13.4692 152.367 13.744C153.074 14.0187 153.705 14.3988 154.262 14.8841C154.82 15.3694 155.302 15.9471 155.706 16.6148C156.109 17.285 156.394 18.0014 156.558 18.7717C156.686 19.2853 156.751 19.8348 156.751 20.4203V20.7489C156.751 20.8593 156.74 20.9595 156.722 21.0519H145.897V21.0494ZM154.196 18.7692C153.885 17.8345 153.366 17.0744 152.642 16.489C151.918 15.9035 151.089 15.6108 150.157 15.6108C149.224 15.6108 148.393 15.9035 147.671 16.489C146.947 17.0744 146.431 17.8345 146.117 18.7692H154.196V18.7692Z" fill="#002568"/>
<path d="M187.392 13.8213L183.6 27.0121H181.319L178.736 18.1095L176.181 27.0121H173.873L170.08 13.8213H172.442L175.026 22.7238L177.609 13.8213H179.889L182.444 22.7238L185.027 13.8213H187.39H187.392Z" fill="#002568"/>
<path d="M196.403 27.5076C195.414 27.5076 194.488 27.3253 193.627 26.9581C192.767 26.5909 192.015 26.0876 191.373 25.4457C190.731 24.8037 190.222 24.0539 189.848 23.1912C189.473 22.3309 189.285 21.404 189.285 20.4154C189.285 19.4268 189.473 18.528 189.848 17.6678C190.222 16.8076 190.731 16.0553 191.373 15.4133C192.015 14.7714 192.765 14.2629 193.627 13.888C194.488 13.5131 195.414 13.3257 196.403 13.3257C197.392 13.3257 198.29 13.5131 199.151 13.888C200.011 14.2629 200.763 14.7714 201.405 15.4133C202.047 16.0553 202.556 16.805 202.93 17.6678C203.305 18.528 203.493 19.4447 203.493 20.4154C203.493 21.386 203.305 22.3309 202.93 23.1912C202.556 24.0514 202.047 24.8037 201.405 25.4457C200.763 26.0876 200.013 26.5909 199.151 26.9581C198.29 27.3253 197.374 27.5076 196.403 27.5076ZM196.403 15.6085C195.743 15.6085 195.119 15.7317 194.534 15.9782C193.948 16.2247 193.442 16.5688 193.021 17.0079C192.6 17.447 192.266 17.9606 192.017 18.546C191.771 19.1315 191.648 19.7554 191.648 20.4154C191.648 21.0753 191.771 21.6967 192.017 22.2847C192.264 22.8702 192.598 23.3786 193.021 23.81C193.442 24.2414 193.946 24.5803 194.534 24.8268C195.119 25.0733 195.743 25.1966 196.403 25.1966C197.063 25.1966 197.682 25.0733 198.257 24.8268C198.835 24.5803 199.338 24.2414 199.769 23.81C200.201 23.3786 200.54 22.8702 200.786 22.2847C201.033 21.6993 201.156 21.0753 201.156 20.4154C201.156 19.7554 201.033 19.134 200.786 18.546C200.54 17.9606 200.201 17.447 199.769 17.0079C199.338 16.5688 198.835 16.2247 198.257 15.9782C197.679 15.7317 197.06 15.6085 196.403 15.6085V15.6085Z" fill="#002568"/>
<path d="M213.302 13.2999C213.887 13.2999 214.419 13.3539 214.897 13.4643L214.568 15.7188C214.239 15.5904 213.808 15.5262 213.276 15.5262C212.398 15.5262 211.697 15.6597 211.173 15.9242C210.652 16.1913 210.249 16.5097 209.964 16.8871C209.679 17.262 209.491 17.6395 209.401 18.0144C209.309 18.3893 209.255 18.6872 209.237 18.908V27.0145H206.9V13.8212H209.237V15.0024C209.255 14.9844 209.35 14.8894 209.525 14.7148C209.699 14.5402 209.951 14.3476 210.28 14.137C210.608 13.9265 211.027 13.7339 211.53 13.5593C212.033 13.3847 212.624 13.2974 213.302 13.2974V13.2999Z" fill="#002568"/>
<path d="M79.8506 13.8647H69.8156L69.1865 14.9509V16.1449H76.7718L69.2148 24.7753L69.1865 24.801V27.0555H79.8506V24.7753H72.2653L79.8506 16.091V13.8647Z" fill="#002568"/>
<path d="M140.099 18.3149C140.081 18.1583 140.052 17.9811 140.016 17.7782C139.942 17.3571 139.806 16.8846 139.603 16.3634C139.4 15.8421 139.095 15.3568 138.684 14.9074C138.27 14.4581 137.731 14.0832 137.063 13.7802C136.393 13.4772 135.556 13.3257 134.55 13.3257C133.89 13.3257 133.309 13.413 132.803 13.5876C132.3 13.7622 131.879 13.9497 131.54 14.1499C131.201 14.3528 130.944 14.5454 130.77 14.7277C130.595 14.91 130.5 15.0025 130.482 15.0025V13.8213H128.841L128.146 15.0256V27.012H130.482V18.9337C130.5 18.7129 130.554 18.4176 130.647 18.0402C130.739 17.6653 130.926 17.2904 131.209 16.9129C131.491 16.538 131.897 16.217 132.418 15.95C132.94 15.6855 133.641 15.552 134.521 15.552C135.253 15.552 135.841 15.6906 136.28 15.9654C136.719 16.2401 137.051 16.5688 137.269 16.954C137.49 17.3391 137.631 17.7423 137.695 18.1634C137.759 18.5845 137.79 18.9415 137.79 19.2342V27.012H140.127V18.7412C140.127 18.6128 140.117 18.4715 140.099 18.3149V18.3149Z" fill="#002568"/>
<path d="M167.13 16.0654V13.8519H163.941V10.8784H162.451L161.56 12.4165V13.8519H159.444V16.0654H161.56V22.7904C161.56 25.692 162.872 27.2327 165.818 27.2327C166.354 27.2327 166.781 27.1814 167.13 27.1018V25.0116C166.834 25.0372 166.485 25.0629 166.085 25.0629C163.969 25.0629 163.943 23.8073 163.943 21.9276V16.0654H167.132H167.13Z" fill="#002568"/>
<path d="M223.542 19.2367L228.426 14.1319L225.18 14.119L220.245 19.2623V7.72266H218.671L217.908 9.03737V21.7094V25.1169V27.0119H220.245V22.6698L221.893 20.9391L226.949 27.0119H230L223.542 19.2367Z" fill="#002568"/>
<path d="M31.8539 32.0088L26.9211 40.4748L21.9268 32.0165L31.8539 32.0088Z" fill="#007A8E"/>
<path d="M22.1631 8.84979L26.9418 0.542969L31.8231 8.82668L22.1631 8.84979Z" fill="#00A2B1"/>
<path d="M53.7696 20.4998L42.2377 0.524902L26.9387 0.542877L31.5942 8.78037L6.72762 8.84713L0 20.4998H42.1221L42.1247 20.5075L53.7696 20.4998Z" fill="#00FFF0"/>
<path d="M53.7696 20.5H11.5371H0L11.5551 40.4697L26.9208 40.4749L22.0291 32.1398H47.0523L53.7696 20.5Z" fill="#00A2B1"/>
</g>
<defs>
<clipPath id="clip0_341_17497">
<rect width="230" height="39.9498" fill="white" transform="translate(0 0.524902)"/>
</clipPath>
</defs>
</svg>
