<svg width="26" height="26" viewBox="0 0 26 26" fill="none" xmlns="http://www.w3.org/2000/svg">
<g clip-path="url(#clip0_341_22550)">
<path d="M2.18012 0.678223C2.13558 1.23787 2.09659 1.68615 2.05761 2.1734C1.3142 2.22631 0.643178 2.27364 0 2.31819V16.7688H9.84536V18.9851H6.4819C8.48105 21.2126 10.2825 23.2173 12.1703 25.3223C14.0887 23.1811 15.8818 21.1792 17.9088 18.9183H14.484V16.6714H24.3684C24.4185 16.0727 24.4575 15.6217 24.502 15.1205C25.0144 15.0815 25.4682 15.0453 26.0028 15.0063V0.678223H2.18012ZM24.8891 13.8759C24.7638 13.8759 24.6385 13.8787 24.5132 13.8815V2.22074H3.30221C3.30221 2.09266 3.30221 1.9618 3.30499 1.83372H24.8891V13.8759Z" fill="#002568"/>
<path d="M12.92 11.8461L11.8682 13.6533L11.9596 13.7065L13.0114 11.8993L12.92 11.8461Z" fill="white" stroke="white" stroke-width="0.2" stroke-linejoin="round"/>
<path d="M12.8575 11.61L11.6406 13.7109L12.0237 13.9328L13.2406 11.8319L12.8575 11.61Z" fill="white" stroke="white" stroke-width="0.2" stroke-linejoin="round"/>
<path d="M11.8713 4.99405L10.8408 6.78467L10.9325 6.83744L11.963 5.04682L11.8713 4.99405Z" fill="white" stroke="white" stroke-width="0.2" stroke-linejoin="round"/>
<path d="M10.9956 7.06826L10.6113 6.8483L11.8086 4.76562L12.1928 4.98559L10.9956 7.06826Z" fill="white" stroke="white" stroke-width="0.2" stroke-linejoin="round"/>
<path d="M15.2078 9.40159C15.2078 9.40159 15.1994 9.40159 15.1938 9.40159H6.07519C6.0557 9.40159 6.03899 9.39045 6.02785 9.37374C6.01672 9.35704 6.0195 9.33755 6.02785 9.32084L7.48684 6.79546C7.49519 6.77876 7.51468 6.76762 7.53417 6.76762L12.8327 6.7537L11.8694 5.04691C11.861 5.0302 11.861 5.01071 11.8694 4.99401C11.8777 4.9773 11.8972 4.96616 11.9167 4.96616H15.2328V4.96338C15.2523 4.96338 15.269 4.97452 15.2802 4.99122L17.7805 9.32084C17.7888 9.33755 17.7888 9.35704 17.7805 9.37374C17.7721 9.39045 17.7526 9.40159 17.7331 9.40159H15.2078ZM15.2078 9.29578C15.2078 9.29578 15.2161 9.29578 15.2217 9.29578H17.6413L15.2022 5.07197H12.0086L12.972 6.78154C12.9803 6.79825 12.9803 6.81774 12.972 6.83444C12.9636 6.85115 12.9441 6.86229 12.9274 6.86229L7.56758 6.87621L6.16985 9.29578H15.2078Z" fill="white" stroke="white" stroke-width="0.2" stroke-linejoin="round"/>
<path d="M15.2082 9.57143H6.07844C6.00048 9.57143 5.92808 9.52967 5.8891 9.46284H5.88075L5.88632 9.45449C5.84734 9.39045 5.84734 9.30414 5.8891 9.23731L7.34809 6.71193C7.38707 6.64511 7.45946 6.60056 7.54021 6.60056L12.552 6.58664L11.7278 5.13044C11.6888 5.06362 11.6888 4.98009 11.7278 4.91326V4.90769H11.7306C11.7724 4.84087 11.8448 4.80189 11.9199 4.80189H15.2361C15.314 4.7991 15.3892 4.84087 15.4282 4.90769L17.9285 9.23731C17.9675 9.30414 17.9675 9.38767 17.9285 9.45449L17.9341 9.46284H17.9257C17.8867 9.52967 17.8144 9.56865 17.7364 9.56865H15.211L15.2082 9.57143ZM6.45989 9.12873H17.3494L15.1052 5.24181H12.2958L13.12 6.7008C13.159 6.76762 13.159 6.85115 13.12 6.91797V6.92354H13.1172C13.0782 6.98758 13.0058 7.02935 12.9307 7.02935L7.6655 7.04327L6.46267 9.12873H6.45989Z" fill="white" stroke="white" stroke-width="0.2" stroke-linejoin="round"/>
<path d="M11.912 13.7312H8.58195C8.56246 13.7312 8.54575 13.72 8.53462 13.7033L6.02873 9.37371C6.02037 9.35701 6.02037 9.33752 6.02873 9.32081C6.03708 9.30411 6.05657 9.29297 6.07606 9.29297H17.734C17.7535 9.29297 17.7702 9.30411 17.7814 9.32081C17.7925 9.33752 17.7897 9.35701 17.7814 9.37371L16.3251 11.8963C16.3168 11.913 16.2973 11.9242 16.2778 11.9242H10.9458L11.9593 13.6504C11.9677 13.6671 11.9705 13.6866 11.9593 13.7033C11.951 13.72 11.9315 13.7312 11.912 13.7312ZM8.61258 13.6226H11.8201L10.8066 11.8963C10.7983 11.8796 10.7955 11.8601 10.8066 11.8434C10.815 11.8267 10.8345 11.8156 10.854 11.8156H16.2472L17.6421 9.39877H6.17073L8.61536 13.6226H8.61258Z" fill="white" stroke="white" stroke-width="0.2" stroke-linejoin="round"/>
<path d="M11.9118 13.8983H8.58174C8.50377 13.8983 8.4286 13.8538 8.38962 13.7869L5.88373 9.45731C5.84475 9.39327 5.84475 9.30974 5.88373 9.24013L5.87816 9.23178H5.88651C5.92549 9.16496 5.99788 9.12598 6.07585 9.12598H17.7338C17.8118 9.12598 17.8842 9.16774 17.9231 9.23178H17.9315L17.9259 9.24013C17.9621 9.30974 17.9621 9.39049 17.9259 9.45731L16.4697 11.9799C16.4307 12.0467 16.3583 12.0913 16.2776 12.0913H11.238L12.1039 13.5642C12.1429 13.631 12.1429 13.7145 12.1067 13.7814L12.1123 13.7897H12.1011C12.0621 13.8565 11.9897 13.8955 11.9118 13.8955V13.8983ZM8.70703 13.4556H11.5248L10.6588 11.9827C10.6199 11.9187 10.6171 11.8351 10.6561 11.7655L10.6505 11.7572H10.6616C10.7006 11.6903 10.773 11.6514 10.851 11.6514H16.1467L17.3496 9.57147H6.46008L8.70981 13.4584L8.70703 13.4556Z" fill="white" stroke="white" stroke-width="0.2" stroke-linejoin="round"/>
</g>
<defs>
<clipPath id="clip0_341_22550">
<rect width="26" height="24.644" fill="white" transform="translate(0 0.678223)"/>
</clipPath>
</defs>
</svg>
