<svg width="22" height="23" viewBox="0 0 22 23" fill="none" xmlns="http://www.w3.org/2000/svg">
<g clip-path="url(#clip0_341_22517)">
<path d="M0 3.94307C0.371928 2.37828 1.56749 1.63205 2.91401 1.07295C4.54234 0.397327 6.25505 0.211917 8.00621 0.320407C9.3533 0.405363 10.6533 0.682042 11.8736 1.2773C12.5049 1.58383 13.0754 1.96957 13.5432 2.49825C14.5247 3.60784 14.5063 4.95334 13.4893 6.02792C12.7712 6.78735 11.8661 7.23796 10.8887 7.55137C8.92685 8.1828 6.92831 8.25799 4.90681 7.91186C3.68312 7.70234 2.51798 7.32636 1.48657 6.61227C0.81962 6.14961 0.277798 5.58247 0.0648581 4.76621C0.0453433 4.69159 0.0218106 4.61812 0 4.54464V3.94307Z" fill="#002568"/>
<path d="M0.000111911 7.07959C1.62385 8.51924 3.58853 9.08867 5.68981 9.31828C6.78162 9.43227 7.88298 9.41898 8.97173 9.27867C8.8225 9.44686 8.70196 9.58118 8.58315 9.71722C8.0384 10.3364 7.59306 11.0365 7.26304 11.7923C7.20564 11.9318 7.13217 11.9812 6.97606 11.9772C5.29836 11.9341 3.6729 11.6597 2.16223 10.8865C1.5125 10.5541 0.932801 10.1288 0.49085 9.53411C0.238306 9.19486 0.101703 8.80912 -0.00390625 8.4073L0.000111911 7.07959Z" fill="#002568"/>
<path d="M0 14.814C0.641303 15.3853 1.37238 15.8471 2.16384 16.1807C3.49658 16.7404 4.89189 17.0188 6.33024 17.0951C6.75038 17.1175 6.75268 17.1112 6.86632 17.5096C7.0681 18.2112 7.36123 18.8832 7.73817 19.5083C7.76687 19.5554 7.7904 19.6059 7.82886 19.6805C7.64404 19.6914 7.48103 19.7087 7.31803 19.7098C5.60418 19.7196 3.94083 19.4693 2.37678 18.7294C1.64441 18.385 0.988939 17.9338 0.495905 17.2737C0.243361 16.935 0.106185 16.5492 0.00172357 16.1474L0 14.814Z" fill="#002568"/>
<path d="M0 10.9468C0.673389 11.5468 1.44545 12.0259 2.28208 12.3629C3.56029 12.8795 4.89361 13.1424 6.26481 13.2268C6.39337 13.2348 6.52251 13.2406 6.65051 13.2486C6.68726 13.2537 6.72368 13.261 6.75956 13.2704C6.58278 14.0999 6.4766 14.9316 6.56441 15.8197C6.18675 15.7841 5.82572 15.7623 5.46757 15.7146C4.16008 15.5424 2.90368 15.2043 1.76322 14.5155C1.23804 14.1986 0.750743 13.8266 0.433341 13.2928C0.246803 12.98 0.141769 12.6183 0 12.2791V10.9468Z" fill="#002568"/>
<path fill-rule="evenodd" clip-rule="evenodd" d="M10.0131 10.0082C8.72637 11.2936 8.00234 13.037 8 14.8557C8.00375 16.6701 8.72558 18.4092 10.0077 19.693C11.2899 20.9769 13.0282 21.7011 14.8427 21.7073C18.634 21.7134 21.7545 18.6277 21.7606 14.8638C21.7667 11.1 18.6557 8.00407 14.863 8C13.0442 8.00054 11.2999 8.72279 10.0131 10.0082Z" fill="#002568"/>
<path d="M15.4965 16.7317C15.4496 16.7025 15.3902 16.7181 15.3639 16.7666L14.6515 18.0784C14.6251 18.127 14.6417 18.19 14.6886 18.2192L14.751 18.2581C14.7979 18.2874 14.8572 18.2717 14.8836 18.2232L15.596 16.9114C15.6223 16.8629 15.6057 16.7998 15.5589 16.7706L15.4965 16.7317Z" fill="#FAFCFC" stroke="white" stroke-width="0.2" stroke-linejoin="round"/>
<path d="M14.7515 18.281C14.7748 18.2957 14.8032 18.3 14.8299 18.293C14.8565 18.2859 14.8791 18.2682 14.8923 18.244L15.6233 16.8991C15.6486 16.8527 15.6333 16.7946 15.5885 16.7666L15.495 16.7082C15.4716 16.6936 15.4432 16.6892 15.4165 16.6963C15.3899 16.7033 15.3673 16.721 15.3541 16.7452L14.6231 18.0901C14.5978 18.1365 14.6131 18.1946 14.6579 18.2226L14.7515 18.281Z" fill="white" stroke="white" stroke-width="0.2" stroke-linejoin="round"/>
<path d="M14.7865 11.7622C14.7395 11.7332 14.6802 11.7491 14.6541 11.7978L13.9559 13.0974C13.9298 13.146 13.9467 13.209 13.9937 13.238L14.0563 13.2766C14.1033 13.3056 14.1626 13.2897 14.1887 13.241L14.8869 11.9414C14.913 11.8928 14.8961 11.8298 14.8491 11.8008L14.7865 11.7622Z" fill="#FAFCFC" stroke="white" stroke-width="0.2" stroke-linejoin="round"/>
<path d="M14.0579 13.3001C14.0813 13.3146 14.1097 13.3187 14.1364 13.3116C14.163 13.3044 14.1855 13.2866 14.1986 13.2623L14.9141 11.9291C14.9391 11.8825 14.9235 11.8245 14.8786 11.7967L14.7847 11.7387C14.7613 11.7242 14.7328 11.72 14.7062 11.7271C14.6796 11.7343 14.6571 11.7521 14.644 11.7764L13.9285 13.1097C13.9035 13.1563 13.9191 13.2142 13.964 13.242L14.0579 13.3001Z" fill="white" stroke="white" stroke-width="0.2" stroke-linejoin="round"/>
<path d="M18.7073 15.147L17.0072 15.1482C17.0043 15.1484 17.0013 15.1485 16.9983 15.1485L16.9982 15.1486C16.9971 15.1486 16.9899 15.1488 16.9798 15.1474H10.8156C10.7636 15.1474 10.7191 15.1178 10.6962 15.0757C10.6737 15.034 10.6736 14.9835 10.6962 14.9418L10.6961 14.9419L10.7795 14.9868M18.7073 15.147L11.8029 13.1169M18.7073 15.147C18.7073 15.147 18.7074 15.147 18.7074 15.147C18.7594 15.147 18.8038 15.1174 18.8267 15.0753L18.7073 15.147ZM10.7795 14.9868C10.78 14.9898 10.7806 14.9928 10.7814 14.9957C10.7821 14.9935 10.7831 14.9914 10.7842 14.9894M10.7795 14.9868L10.7842 14.9894M10.7795 14.9868L10.7842 14.9894M10.7842 14.9894L10.8134 14.9352L11.7592 13.1798L11.7719 13.1562C11.7784 13.1442 11.7903 13.1369 11.8029 13.1369M11.8029 13.1369L11.8237 13.1368L15.2778 13.1272L15.266 13.1048M11.8029 13.1369L11.8029 13.1169M11.8029 13.1369V13.1169M15.266 13.1048L15.3488 13.1045L15.308 13.0271M15.266 13.1048L15.2252 13.0273L15.308 13.0271M15.266 13.1048L11.8236 13.1147C11.8166 13.1147 11.8097 13.1154 11.8029 13.1169M15.308 13.0271L15.3381 13.027L14.7664 11.9422L14.738 11.8884C14.7367 11.8859 14.7357 11.8833 14.735 11.8807C14.734 11.8841 14.7332 11.8876 14.7326 11.8911C14.7326 11.8912 14.7326 11.8912 14.7326 11.8912C14.7289 11.9126 14.7322 11.935 14.7427 11.9547L15.308 13.0271ZM11.8029 13.1169V13.0369C11.8029 13.0369 11.8028 13.0369 11.8027 13.0369C11.7506 13.037 11.7065 13.067 11.684 13.1086L11.6839 13.1088L10.6962 14.9417L10.7795 14.9868C10.7758 14.9651 10.7793 14.9425 10.79 14.9226L11.7359 13.1672C11.7402 13.1591 11.7456 13.1518 11.7518 13.1454C11.7518 13.1454 11.7518 13.1454 11.7518 13.1453C11.7656 13.131 11.7834 13.1211 11.8029 13.1169M11.8029 13.1169C11.8029 13.1169 11.8029 13.1169 11.8029 13.1169M14.7689 11.7303L14.769 11.8297M14.7689 11.7303L14.7682 11.8304C14.7685 11.8301 14.7688 11.8299 14.769 11.8297M14.7689 11.7303C14.7689 11.7303 14.7689 11.7303 14.769 11.7303C14.769 11.7303 14.769 11.7303 14.769 11.7303V11.8297L14.7689 11.7303ZM14.769 11.8297L14.769 11.8303L14.769 11.8297ZM14.8838 12.008L15.4556 13.0926L15.4838 13.1462C15.4851 13.1487 15.4862 13.1514 15.4869 13.1541C15.4879 13.1506 15.4887 13.147 15.4893 13.1434C15.4893 13.1433 15.4893 13.1433 15.4893 13.1433C15.4929 13.122 15.4895 13.0999 15.4792 13.0802L14.9141 12.008M14.8838 12.008L16.9941 12.0054L16.9343 12.0055L16.9059 11.9528L16.9525 11.9277M14.8838 12.008L14.9141 12.008M14.8838 12.008L16.9758 11.9277L16.9525 11.9277M14.9141 12.008L14.9968 12.0079L14.9558 11.9301M14.9141 12.008L14.8731 11.9302L14.9558 11.9301M14.9558 11.9301L16.9525 11.9277M14.9558 11.9301L14.9441 11.908L16.9638 11.9054L16.9706 11.918L16.9525 11.9277M16.991 15.07C16.9934 15.0704 16.9959 15.0707 16.9983 15.0709C16.9983 15.0709 16.9983 15.0709 16.9983 15.0709L16.9983 15.07C16.9983 15.07 16.9983 15.07 16.9983 15.07C16.9982 15.07 16.998 15.07 16.9979 15.07H16.9976H16.991ZM16.991 15.07H16.9896H16.991ZM18.4775 14.8701L17.016 14.8712C17.0059 14.8697 16.9987 14.87 16.9977 14.87L16.9976 14.87H11.0455L11.8837 13.3145L15.4528 13.3042C15.4528 13.3042 15.4529 13.3042 15.4529 13.3042L15.4531 13.3042L15.4528 13.2052C15.4532 13.2049 15.4536 13.2045 15.4541 13.2042C15.4662 13.2037 15.4779 13.1965 15.4838 13.1849L18.4775 14.8701ZM16.9001 14.9474H11.0038H16.9001ZM10.9621 14.87L11.824 13.2703L10.9621 14.87ZM11.8648 13.2367L15.391 13.2268C15.4138 13.2268 15.4355 13.219 15.4528 13.2052L11.8648 13.2367Z" fill="#FCFCFC" stroke="white" stroke-width="0.2" stroke-linejoin="round"/>
<path d="M10.7134 14.9497L10.681 14.9323L10.6811 14.932C10.6552 14.9797 10.6553 15.0382 10.6813 15.0858C10.7071 15.1329 10.7573 15.1667 10.816 15.1667H16.9791C16.9816 15.1671 16.9839 15.1673 16.9861 15.1675C16.9902 15.168 16.9945 15.1683 16.9987 15.1683L18.7077 15.1671C18.7077 15.1671 18.7077 15.1671 18.7078 15.1671C18.7671 15.1671 18.8167 15.1329 18.8423 15.0862C18.8684 15.0385 18.8685 14.9801 18.8425 14.9324L10.847 15.0894C10.8363 15.0894 10.8258 15.0877 10.816 15.0844C10.7937 15.0772 10.7744 15.0622 10.7618 15.0417C10.7616 15.0413 10.7614 15.041 10.7612 15.0406C10.7611 15.0406 10.7611 15.0405 10.761 15.0404C10.761 15.0404 10.761 15.0404 10.761 15.0404C10.7485 15.0193 10.7443 14.9946 10.7487 14.9711L10.7124 14.9516L10.7126 14.9512L10.7134 14.9497ZM10.7134 14.9497L10.7136 14.9493M10.7134 14.9497L10.7491 14.969C10.749 14.9694 10.7489 14.9698 10.7489 14.9702L10.7136 14.9493M15.2365 13.0079L15.2777 13.0077L14.712 11.9354C14.7075 11.9269 14.7043 11.9179 14.7024 11.9086C14.7023 11.908 14.7022 11.9073 14.7021 11.9066C14.7021 11.9066 14.702 11.9066 14.702 11.9065C14.6979 11.8835 14.7019 11.8594 14.714 11.8386L14.6657 11.8133C14.6663 11.8122 14.6669 11.8111 14.6675 11.8101L14.6351 11.7924C14.6352 11.7923 14.6353 11.7921 14.6353 11.792C14.6354 11.7919 14.6355 11.7917 14.6356 11.7916L14.6677 11.8096C14.6881 11.774 14.7259 11.7503 14.7693 11.7501L14.7693 11.7118L14.7693 11.7118C14.7694 11.7118 14.7694 11.7118 14.7694 11.7118L17.0148 11.7091L17.0149 11.7091C17.0743 11.7091 17.1239 11.7433 17.1496 11.7901L17.1499 11.7907L17.1499 11.7907L18.8423 14.932L14.7153 11.8363C14.7152 11.8366 14.715 11.8369 14.7148 11.8372C14.7147 11.8373 14.7147 11.8374 14.7146 11.8376L14.667 11.8109C14.6462 11.848 14.6477 11.8913 14.6657 11.9256L14.6658 11.9258L14.6667 11.9275L14.6667 11.9275L15.2365 13.0079ZM15.2365 13.0079L15.2569 13.0467L15.2153 13.0468M15.2365 13.0079L15.1948 13.008L15.2153 13.0468M15.2153 13.0468L15.2355 13.0851L11.8243 13.0949H11.8241H11.8138C11.8104 13.0949 11.807 13.0951 11.8037 13.0955V13.0566L15.2153 13.0468ZM11.8035 13.0955L11.8034 13.0566L11.8035 13.0566C11.8035 13.0566 11.8034 13.0566 11.8033 13.0566M11.8035 13.0955L11.8032 13.0176C11.8032 13.0176 11.8033 13.0176 11.8033 13.0176V13.0566M11.8035 13.0955C11.8035 13.0955 11.8034 13.0955 11.8033 13.0955M11.8035 13.0955L11.8033 13.0955M11.8033 13.0566V13.0955M11.8033 13.0566C11.8033 13.0566 11.8032 13.0566 11.8032 13.0566M10.7136 14.9493L10.7491 14.9688C10.7511 14.9595 10.7544 14.9505 10.759 14.9419L11.7258 13.1475C11.7279 13.1436 11.7302 13.1399 11.7327 13.1364C11.7329 13.1361 11.7331 13.1359 11.7333 13.1356C11.7336 13.1353 11.7338 13.1349 11.7341 13.1346C11.7341 13.1345 11.7342 13.1345 11.7342 13.1344C11.7508 13.1126 11.7758 13.0984 11.8033 13.0955L11.8032 13.0566M10.7136 14.9493L11.7001 13.1189L11.7009 13.1175L11.7009 13.1175C11.701 13.1173 11.7011 13.1171 11.7012 13.1169C11.7013 13.1167 11.7014 13.1166 11.7015 13.1165C11.7197 13.0846 11.7558 13.0568 11.8032 13.0566M11.8032 13.0566L11.8033 13.0955M18.7056 15.0085L18.7042 15.0077L18.7056 15.0085ZM18.7056 15.0085L18.7059 15.0087L18.7056 15.0085ZM14.7694 11.7937C14.7472 11.801 14.728 11.8159 14.7154 11.8362L14.7694 11.7937ZM14.7694 11.7937V11.7501C14.7695 11.7501 14.7696 11.7501 14.7697 11.7501L14.7697 11.7936C14.7696 11.7937 14.7695 11.7937 14.7694 11.7937ZM18.4465 14.8508L17.0175 14.8518C17.0079 14.8506 17.0008 14.8506 16.9985 14.8507C16.9983 14.8507 16.9981 14.8507 16.9979 14.8507H11.0773L11.8949 13.3335L15.4538 13.3232L15.4538 13.3232L15.4556 13.3232C15.512 13.322 15.5616 13.29 15.5878 13.2422L15.5878 13.2422L15.5886 13.2408C15.6133 13.1938 15.6133 13.1369 15.5886 13.0899C15.5886 13.0899 15.5886 13.0899 15.5886 13.0899L15.0282 12.0269L16.9242 12.0248L18.4465 14.8508Z" fill="white" stroke="white" stroke-width="0.2" stroke-linejoin="round"/>
<path d="M14.7715 18.2895C14.8212 18.2875 14.8634 18.2586 14.8855 18.2179L14.8855 18.2179C14.9081 18.1762 14.9081 18.1256 14.8855 18.0839L14.8853 18.0835L14.2804 16.9784H17.721C17.773 16.9784 17.8175 16.9488 17.8404 16.9067L17.8405 16.9065L18.8267 15.0759C18.8267 15.0758 18.8267 15.0757 18.8268 15.0757M14.7715 18.2895L18.8268 15.0757M14.7715 18.2895C14.77 18.2895 14.7684 18.2896 14.7669 18.2896H14.7668C14.7667 18.2896 14.7665 18.2896 14.7664 18.2896C14.7663 18.2896 14.7662 18.2896 14.7661 18.2896C14.7661 18.2896 14.766 18.2896 14.7659 18.2896L12.5116 18.2888C12.5116 18.2888 12.5116 18.2888 12.5116 18.2888C12.4596 18.2888 12.4151 18.2593 12.3923 18.2171L12.3922 18.217L10.6962 15.0759C10.6962 15.0759 10.6962 15.0758 10.6962 15.0758M14.7715 18.2895L10.6962 15.0758M18.8268 15.0757C18.8493 15.034 18.8492 14.9836 18.8267 14.9419C18.8038 14.8998 18.7593 14.8702 18.7073 14.8702H10.8156C10.7636 14.8702 10.7191 14.8998 10.6962 14.9419C10.6737 14.9836 10.6736 15.0341 10.6962 15.0758M18.8268 15.0757L10.6962 15.0758M18.4778 15.1476H11.0457L12.5919 18.0114L14.5349 18.0121L13.93 16.9071L13.9298 16.9067C13.9072 16.865 13.9072 16.8144 13.9298 16.7727L18.4778 15.1476ZM18.4778 15.1476L17.6411 16.701H14.0492C13.9972 16.701 13.9527 16.7305 13.9298 16.7727L18.4778 15.1476Z" fill="#FAFCFC" stroke="white" stroke-width="0.2" stroke-linejoin="round"/>
<mask id="path-13-outside-1_341_22517" maskUnits="userSpaceOnUse" x="9.76172" y="13.9507" width="10" height="5" fill="black">
<rect fill="white" x="9.76172" y="13.9507" width="10" height="5"/>
<path d="M14.7672 18.2087L12.512 18.208C12.4929 18.208 12.4748 18.1967 12.4651 18.1789L10.769 15.0377C10.7593 15.0199 10.7593 14.9975 10.769 14.9797C10.7788 14.9619 10.7968 14.9507 10.816 14.9507H18.7077C18.7268 14.9507 18.7449 14.9619 18.7546 14.9797C18.7644 14.9975 18.7644 15.0199 18.7546 15.0377L17.7683 16.8685C17.7586 16.8863 17.7405 16.8975 17.7214 16.8975H14.1438L14.8138 18.1213C14.8236 18.1391 14.8236 18.1615 14.8138 18.1793C14.8041 18.1971 14.786 18.2083 14.7669 18.2083L14.7672 18.2087ZM18.7081 14.9894H10.816C10.8095 14.9894 10.8037 14.9932 10.8004 14.999C10.7972 15.0048 10.7972 15.0126 10.8004 15.0184L12.4965 18.1596C12.4997 18.1654 12.5055 18.1693 12.512 18.1693L14.7672 18.17C14.7737 18.17 14.7799 18.1662 14.7828 18.1604C14.786 18.1542 14.786 18.1468 14.7828 18.141L14.0806 16.8589H17.7214C17.7279 16.8589 17.7337 16.855 17.7369 16.8492L18.7232 15.0184C18.7265 15.0126 18.7265 15.0048 18.7232 14.999C18.72 14.9932 18.7142 14.9894 18.7077 14.9894H18.7081ZM14.7358 18.1314L12.5225 18.1306L12.5174 18.1209L10.8474 15.0281H18.6767L17.7113 16.8198H14.0492C14.0427 16.8198 14.0369 16.8236 14.0337 16.8295C14.0304 16.8356 14.0304 16.843 14.0337 16.8488L14.7358 18.131V18.1314ZM12.5434 18.0919L14.6727 18.0927L14.0026 16.8689C13.9929 16.8511 13.9929 16.8287 14.0026 16.8109C14.0124 16.7927 14.0304 16.7819 14.0496 16.7819H17.6907L18.6146 15.0671H10.9098L12.543 18.0923L12.5434 18.0919Z"/>
</mask>
<path d="M14.7672 18.2087L12.512 18.208C12.4929 18.208 12.4748 18.1967 12.4651 18.1789L10.769 15.0377C10.7593 15.0199 10.7593 14.9975 10.769 14.9797C10.7788 14.9619 10.7968 14.9507 10.816 14.9507H18.7077C18.7268 14.9507 18.7449 14.9619 18.7546 14.9797C18.7644 14.9975 18.7644 15.0199 18.7546 15.0377L17.7683 16.8685C17.7586 16.8863 17.7405 16.8975 17.7214 16.8975H14.1438L14.8138 18.1213C14.8236 18.1391 14.8236 18.1615 14.8138 18.1793C14.8041 18.1971 14.786 18.2083 14.7669 18.2083L14.7672 18.2087ZM18.7081 14.9894H10.816C10.8095 14.9894 10.8037 14.9932 10.8004 14.999C10.7972 15.0048 10.7972 15.0126 10.8004 15.0184L12.4965 18.1596C12.4997 18.1654 12.5055 18.1693 12.512 18.1693L14.7672 18.17C14.7737 18.17 14.7799 18.1662 14.7828 18.1604C14.786 18.1542 14.786 18.1468 14.7828 18.141L14.0806 16.8589H17.7214C17.7279 16.8589 17.7337 16.855 17.7369 16.8492L18.7232 15.0184C18.7265 15.0126 18.7265 15.0048 18.7232 14.999C18.72 14.9932 18.7142 14.9894 18.7077 14.9894H18.7081ZM14.7358 18.1314L12.5225 18.1306L12.5174 18.1209L10.8474 15.0281H18.6767L17.7113 16.8198H14.0492C14.0427 16.8198 14.0369 16.8236 14.0337 16.8295C14.0304 16.8356 14.0304 16.843 14.0337 16.8488L14.7358 18.131V18.1314ZM12.5434 18.0919L14.6727 18.0927L14.0026 16.8689C13.9929 16.8511 13.9929 16.8287 14.0026 16.8109C14.0124 16.7927 14.0304 16.7819 14.0496 16.7819H17.6907L18.6146 15.0671H10.9098L12.543 18.0923L12.5434 18.0919Z" fill="white"/>
<path d="M14.7672 18.2087L14.7672 18.4087C14.8468 18.4088 14.9189 18.3615 14.9507 18.2885C14.9824 18.2154 14.9678 18.1305 14.9135 18.0723L14.7672 18.2087ZM12.512 18.208L12.5121 18.008H12.512V18.208ZM12.4651 18.1789L12.2891 18.274L12.2897 18.275L12.4651 18.1789ZM10.769 15.0377L10.945 14.9427L10.9444 14.9417L10.769 15.0377ZM18.7546 15.0377L18.5792 14.9417L18.5786 14.9429L18.7546 15.0377ZM17.7683 16.8685L17.9438 16.9646L17.9444 16.9634L17.7683 16.8685ZM14.1438 16.8975V16.6975C14.0731 16.6975 14.0077 16.7348 13.9717 16.7956C13.9357 16.8564 13.9344 16.9316 13.9684 16.9936L14.1438 16.8975ZM14.8138 18.1213L14.6384 18.2173L14.6384 18.2174L14.8138 18.1213ZM14.7669 18.2083V18.0083C14.6873 18.0083 14.6152 18.0556 14.5835 18.1286C14.5517 18.2017 14.5663 18.2866 14.6207 18.3448L14.7669 18.2083ZM18.7081 15.1894C18.8185 15.1894 18.9081 15.0998 18.9081 14.9894C18.9081 14.8789 18.8185 14.7894 18.7081 14.7894V15.1894ZM10.8004 15.0184L10.9764 14.9234L10.9749 14.9207L10.8004 15.0184ZM12.4965 18.1596L12.3205 18.2546L12.322 18.2573L12.4965 18.1596ZM12.512 18.1693L12.5121 17.9693H12.512V18.1693ZM14.7672 18.17L14.7672 18.37H14.7672V18.17ZM14.7828 18.1604L14.6056 18.0674L14.6037 18.0713L14.7828 18.1604ZM14.7828 18.141L14.6073 18.2371L14.6083 18.2387L14.7828 18.141ZM14.0806 16.8589V16.6589C14.01 16.6589 13.9445 16.6961 13.9085 16.7569C13.8725 16.8177 13.8712 16.893 13.9052 16.9549L14.0806 16.8589ZM17.7369 16.8492L17.9115 16.9469L17.913 16.944L17.7369 16.8492ZM18.7232 15.0184L18.5487 14.9207L18.5472 14.9235L18.7232 15.0184ZM18.7077 14.7894C18.5972 14.7894 18.5077 14.8789 18.5077 14.9894C18.5077 15.0998 18.5972 15.1894 18.7077 15.1894V14.7894ZM14.7358 18.1314L14.7358 18.3314C14.7888 18.3314 14.8397 18.3103 14.8772 18.2728C14.9148 18.2353 14.9358 18.1844 14.9358 18.1314H14.7358ZM12.5225 18.1306L12.3452 18.2232C12.3797 18.2892 12.448 18.3306 12.5224 18.3306L12.5225 18.1306ZM12.5174 18.1209L12.6947 18.0283L12.6934 18.0259L12.5174 18.1209ZM10.8474 15.0281V14.8281C10.7769 14.8281 10.7117 14.8651 10.6756 14.9256C10.6395 14.9861 10.6379 15.0611 10.6714 15.1231L10.8474 15.0281ZM18.6767 15.0281L18.8527 15.1229C18.8861 15.0609 18.8845 14.986 18.8484 14.9255C18.8123 14.8651 18.7471 14.8281 18.6767 14.8281V15.0281ZM17.7113 16.8198V17.0198C17.7849 17.0198 17.8525 16.9794 17.8874 16.9146L17.7113 16.8198ZM14.0337 16.8295L13.8591 16.7317L13.8566 16.7365L14.0337 16.8295ZM14.0337 16.8488L14.2091 16.7527L14.2082 16.7511L14.0337 16.8488ZM14.7358 18.131H14.9358C14.9358 18.0974 14.9274 18.0644 14.9113 18.0349L14.7358 18.131ZM12.5434 18.0919L12.5435 17.8919C12.488 17.8919 12.4349 17.9149 12.3971 17.9555L12.5434 18.0919ZM14.6727 18.0927L14.6726 18.2927C14.7432 18.2927 14.8087 18.2554 14.8447 18.1947C14.8807 18.1339 14.882 18.0586 14.8481 17.9966L14.6727 18.0927ZM14.0026 16.8689L14.178 16.7729L14.178 16.7728L14.0026 16.8689ZM14.0026 16.8109L14.178 16.907L14.1789 16.9054L14.0026 16.8109ZM17.6907 16.7819V16.9819C17.7643 16.9819 17.8319 16.9415 17.8668 16.8767L17.6907 16.7819ZM18.6146 15.0671L18.7906 15.162C18.824 15.1 18.8224 15.025 18.7863 14.9646C18.7502 14.9042 18.685 14.8671 18.6146 14.8671V15.0671ZM10.9098 15.0671V14.8671C10.8394 14.8671 10.7741 14.9042 10.7381 14.9647C10.702 15.0252 10.7004 15.1002 10.7338 15.1622L10.9098 15.0671ZM12.543 18.0923L12.3671 18.1873C12.3977 18.244 12.4537 18.2825 12.5176 18.2907C12.5815 18.2989 12.6454 18.2758 12.6894 18.2286L12.543 18.0923ZM14.7673 18.0087L12.5121 18.008L12.5119 18.408L14.7672 18.4087L14.7673 18.0087ZM12.512 18.008C12.5719 18.008 12.6181 18.042 12.6405 18.0829L12.2897 18.275C12.3315 18.3515 12.4138 18.408 12.512 18.408V18.008ZM12.6411 18.0839L10.945 14.9427L10.593 15.1328L12.2891 18.274L12.6411 18.0839ZM10.9444 14.9417C10.9675 14.9837 10.9675 15.0337 10.9444 15.0758L10.5936 14.8836C10.5511 14.9613 10.5511 15.0562 10.5936 15.1338L10.9444 14.9417ZM10.9444 15.0758C10.9221 15.1167 10.8759 15.1507 10.816 15.1507V14.7507C10.7178 14.7507 10.6355 14.8072 10.5936 14.8836L10.9444 15.0758ZM10.816 15.1507H18.7077V14.7507H10.816V15.1507ZM18.7077 15.1507C18.6478 15.1507 18.6016 15.1167 18.5792 15.0758L18.93 14.8836C18.8882 14.8072 18.8059 14.7507 18.7077 14.7507V15.1507ZM18.5792 15.0758C18.5562 15.0337 18.5562 14.9837 18.5792 14.9417L18.93 15.1338C18.9726 15.0562 18.9726 14.9613 18.93 14.8836L18.5792 15.0758ZM18.5786 14.9429L17.5923 16.7737L17.9444 16.9634L18.9307 15.1326L18.5786 14.9429ZM17.5929 16.7725C17.6153 16.7316 17.6615 16.6975 17.7214 16.6975V17.0975C17.8196 17.0975 17.9019 17.0411 17.9438 16.9646L17.5929 16.7725ZM17.7214 16.6975H14.1438V17.0975H17.7214V16.6975ZM13.9684 16.9936L14.6384 18.2173L14.9892 18.0252L14.3192 16.8015L13.9684 16.9936ZM14.6384 18.2174C14.6154 18.1753 14.6154 18.1253 14.6384 18.0833L14.9892 18.2754C15.0318 18.1978 15.0318 18.1029 14.9892 18.0252L14.6384 18.2174ZM14.6384 18.0833C14.6608 18.0424 14.707 18.0083 14.7669 18.0083V18.4083C14.865 18.4083 14.9473 18.3519 14.9892 18.2754L14.6384 18.0833ZM14.6207 18.3448L14.621 18.3452L14.9135 18.0723L14.9131 18.0719L14.6207 18.3448ZM18.7081 14.7894H10.816V15.1894H18.7081V14.7894ZM10.816 14.7894C10.7263 14.7894 10.6589 14.8424 10.6259 14.9013L10.9749 15.0967C10.9484 15.1441 10.8927 15.1894 10.816 15.1894V14.7894ZM10.6259 14.9013C10.5887 14.9678 10.5887 15.0496 10.6259 15.1161L10.9749 14.9207C11.0057 14.9756 11.0057 15.0418 10.9749 15.0967L10.6259 14.9013ZM10.6245 15.1134L12.3205 18.2546L12.6725 18.0646L10.9764 14.9234L10.6245 15.1134ZM12.322 18.2573C12.355 18.3162 12.4223 18.3693 12.512 18.3693V17.9693C12.5887 17.9693 12.6445 18.0146 12.671 18.0619L12.322 18.2573ZM12.5119 18.3693L14.7672 18.37L14.7673 17.97L12.5121 17.9693L12.5119 18.3693ZM14.7672 18.37C14.8509 18.37 14.9257 18.322 14.9618 18.2495L14.6037 18.0713C14.6341 18.0103 14.6965 17.97 14.7672 17.97V18.37ZM14.9599 18.2533C14.9926 18.1909 14.9956 18.1117 14.9573 18.0433L14.6083 18.2387C14.5765 18.182 14.5794 18.1175 14.6057 18.0674L14.9599 18.2533ZM14.9582 18.045L14.256 16.7628L13.9052 16.9549L14.6074 18.2371L14.9582 18.045ZM14.0806 17.0589H17.7214V16.6589H14.0806V17.0589ZM17.7214 17.0589C17.8111 17.0589 17.8784 17.0058 17.9115 16.9469L17.5624 16.7515C17.5889 16.7041 17.6447 16.6589 17.7214 16.6589V17.0589ZM17.913 16.944L18.8993 15.1132L18.5472 14.9235L17.5609 16.7543L17.913 16.944ZM18.8977 15.1161C18.935 15.0496 18.935 14.9678 18.8977 14.9013L18.5487 15.0967C18.518 15.0418 18.518 14.9756 18.5487 14.9207L18.8977 15.1161ZM18.8977 14.9013C18.8647 14.8424 18.7974 14.7894 18.7077 14.7894V15.1894C18.631 15.1894 18.5752 15.1441 18.5487 15.0967L18.8977 14.9013ZM18.7077 15.1894H18.7081V14.7894H18.7077V15.1894ZM14.7359 17.9314L12.5225 17.9306L12.5224 18.3306L14.7358 18.3314L14.7359 17.9314ZM12.6997 18.038L12.6947 18.0283L12.3402 18.2135L12.3452 18.2232L12.6997 18.038ZM12.6934 18.0259L11.0234 14.933L10.6714 15.1231L12.3414 18.2159L12.6934 18.0259ZM10.8474 15.2281H18.6767V14.8281H10.8474V15.2281ZM18.5006 14.9332L17.5352 16.7249L17.8874 16.9146L18.8527 15.1229L18.5006 14.9332ZM17.7113 16.6198H14.0492V17.0198H17.7113V16.6198ZM14.0492 16.6198C13.9595 16.6198 13.8922 16.6728 13.8592 16.7317L14.2082 16.9272C14.1817 16.9745 14.1259 17.0198 14.0492 17.0198V16.6198ZM13.8566 16.7365C13.8238 16.7989 13.8209 16.8781 13.8592 16.9465L14.2082 16.7511C14.24 16.8078 14.237 16.8724 14.2108 16.9224L13.8566 16.7365ZM13.8583 16.9449L14.5604 18.227L14.9113 18.0349L14.2091 16.7527L13.8583 16.9449ZM14.5358 18.131V18.1314H14.9358V18.131H14.5358ZM12.5433 18.2919L14.6726 18.2927L14.6727 17.8927L12.5435 17.8919L12.5433 18.2919ZM14.8481 17.9966L14.178 16.7729L13.8272 16.965L14.4972 18.1887L14.8481 17.9966ZM14.178 16.7728C14.2011 16.8149 14.2011 16.8649 14.178 16.907L13.8272 16.7148C13.7847 16.7925 13.7847 16.8873 13.8272 16.965L14.178 16.7728ZM14.1789 16.9054C14.1554 16.9492 14.1074 16.9819 14.0496 16.9819V16.5819C13.9534 16.5819 13.8693 16.6362 13.8263 16.7164L14.1789 16.9054ZM14.0496 16.9819H17.6907V16.5819H14.0496V16.9819ZM17.8668 16.8767L18.7906 15.162L18.4385 14.9723L17.5147 16.687L17.8668 16.8767ZM18.6146 14.8671H10.9098V15.2671H18.6146V14.8671ZM10.7338 15.1622L12.3671 18.1873L12.719 17.9973L11.0858 14.9721L10.7338 15.1622ZM12.6894 18.2286L12.6897 18.2283L12.3971 17.9555L12.3967 17.9559L12.6894 18.2286Z" fill="white" mask="url(#path-13-outside-1_341_22517)"/>
</g>
<defs>
<clipPath id="clip0_341_22517">
<rect width="22" height="22" fill="white" transform="translate(0 0.291016)"/>
</clipPath>
</defs>
</svg>
