<svg width="26" height="26" viewBox="0 0 26 26" fill="none" xmlns="http://www.w3.org/2000/svg">
<path d="M9.19476 25.9957V6.10609C9.09981 6.10134 9.0191 6.09456 8.93771 6.09456C8.27779 6.09456 7.61787 6.09456 6.95795 6.09456C6.59171 6.09456 6.31906 5.91281 6.20105 5.60559C6.07761 5.28481 6.16375 4.97353 6.4581 4.72396C8.20387 3.22519 9.95099 1.728 11.6995 0.232386C12.0569 -0.073472 12.4204 -0.0788975 12.7758 0.224926C14.5315 1.7246 16.2852 3.227 18.0369 4.7321C18.3197 4.97557 18.4004 5.28481 18.2851 5.59813C18.1698 5.91145 17.8965 6.09659 17.5106 6.09795C16.7835 6.09795 16.0558 6.09795 15.2887 6.09795V6.37261C15.2887 7.05079 15.2839 7.72558 15.2921 8.4024C15.2921 8.55092 15.2392 8.62145 15.1137 8.69469C12.162 10.4186 10.617 12.9889 10.7445 16.4096C10.8598 19.5103 12.4035 21.8269 15.0811 23.3847C15.231 23.4722 15.2988 23.5549 15.2927 23.734C15.2785 24.1477 15.2683 24.5641 15.2927 24.9764C15.3219 25.4511 15.1673 25.7963 14.7285 25.9998L9.19476 25.9957Z" fill="#002568"/>
<path d="M4.62109 25.9959V11.6572C4.62109 10.9906 4.89239 10.7145 5.5557 10.7139H7.66839V25.9959H4.62109Z" fill="#002568"/>
<path d="M0 17.3639C0.203469 16.9258 0.549367 16.78 1.02142 16.799C1.68676 16.8254 2.35278 16.8058 3.04661 16.8058V25.9951H0.558183C0.312929 25.8792 0.115603 25.6816 0 25.4363V17.3639Z" fill="#002568"/>
<path fill-rule="evenodd" clip-rule="evenodd" d="M14.2514 11.1991C12.9646 12.4845 12.2406 14.2279 12.2383 16.0466C12.242 17.861 12.9639 19.6001 14.246 20.884C15.5282 22.1678 17.2665 22.892 19.081 22.8983C22.8723 22.9044 25.9928 19.8187 25.9989 16.0548C26.005 12.2909 22.894 9.19499 19.1013 9.19092C17.2825 9.19146 15.5382 9.91371 14.2514 11.1991Z" fill="#002568"/>
<path d="M19.7347 17.9226C19.6879 17.8934 19.6285 17.909 19.6022 17.9576L18.8898 19.2693C18.8634 19.3179 18.88 19.3809 18.9269 19.4101L18.9893 19.4491C19.0361 19.4783 19.0955 19.4626 19.1219 19.4141L19.8343 18.1023C19.8606 18.0538 19.844 17.9907 19.7971 17.9615L19.7347 17.9226Z" fill="#FAFCFC" stroke="white" stroke-width="0.2" stroke-linejoin="round"/>
<path d="M18.9897 19.472C19.0131 19.4866 19.0415 19.4909 19.0682 19.4839C19.0948 19.4769 19.1174 19.4591 19.1306 19.4349L19.8616 18.0901C19.8869 18.0436 19.8716 17.9855 19.8268 17.9575L19.7333 17.8991C19.7099 17.8845 19.6815 17.8802 19.6548 17.8872C19.6282 17.8942 19.6056 17.9119 19.5924 17.9361L18.8614 19.281C18.8361 19.3274 18.8514 19.3855 18.8962 19.4135L18.9897 19.472Z" fill="white" stroke="white" stroke-width="0.2" stroke-linejoin="round"/>
<path d="M19.0248 12.9531C18.9778 12.9241 18.9185 12.94 18.8924 12.9887L18.1942 14.2883C18.1681 14.337 18.185 14.3999 18.232 14.4289L18.2945 14.4675C18.3415 14.4965 18.4008 14.4806 18.427 14.4319L19.1251 13.1323C19.1513 13.0837 19.1344 13.0207 19.0874 12.9917L19.0248 12.9531Z" fill="#FAFCFC" stroke="white" stroke-width="0.2" stroke-linejoin="round"/>
<path d="M18.2962 14.491C18.3196 14.5055 18.348 14.5097 18.3747 14.5025C18.4013 14.4954 18.4238 14.4775 18.4369 14.4532L19.1524 13.12C19.1774 13.0734 19.1618 13.0154 19.1169 12.9876L19.023 12.9296C18.9995 12.9151 18.9711 12.9109 18.9445 12.9181C18.9178 12.9252 18.8953 12.9431 18.8823 12.9674L18.1668 14.3006C18.1418 14.3472 18.1573 14.4052 18.2023 14.4329L18.2962 14.491Z" fill="white" stroke="white" stroke-width="0.2" stroke-linejoin="round"/>
<path d="M22.9456 16.3379L21.2455 16.3391C21.2425 16.3393 21.2396 16.3395 21.2366 16.3395L21.2364 16.3395C21.2354 16.3395 21.2282 16.3397 21.2181 16.3383H15.0539C15.0019 16.3383 14.9574 16.3088 14.9345 16.2666C14.912 16.2249 14.9119 16.1744 14.9345 16.1328L14.9344 16.1328L15.0177 16.1777M22.9456 16.3379L16.0412 14.3078M22.9456 16.3379C22.9456 16.3379 22.9456 16.3379 22.9457 16.3379C22.9976 16.3379 23.0421 16.3084 23.0649 16.2662L22.9456 16.3379ZM15.0177 16.1777C15.0182 16.1807 15.0189 16.1837 15.0197 16.1867C15.0204 16.1845 15.0213 16.1823 15.0225 16.1803M15.0177 16.1777L15.0225 16.1803M15.0177 16.1777L15.0225 16.1803M15.0225 16.1803L15.0517 16.1261L15.9975 14.3707L16.0102 14.3472C16.0167 14.3352 16.0286 14.3278 16.0412 14.3278M16.0412 14.3278L16.0619 14.3278L19.5161 14.3181L19.5043 14.2957M16.0412 14.3278L16.0412 14.3078M16.0412 14.3278V14.3078M19.5043 14.2957L19.5871 14.2954L19.5463 14.218M19.5043 14.2957L19.4635 14.2182L19.5463 14.218M19.5043 14.2957L16.0619 14.3056C16.0549 14.3056 16.0479 14.3064 16.0412 14.3078M19.5463 14.218L19.5763 14.2179L19.0047 13.1332L18.9763 13.0793C18.975 13.0768 18.974 13.0742 18.9732 13.0716C18.9723 13.075 18.9715 13.0785 18.9709 13.0821C18.9708 13.0821 18.9708 13.0821 18.9708 13.0822C18.9672 13.1035 18.9705 13.1259 18.9809 13.1457L19.5463 14.218ZM16.0412 14.3078V14.2278C16.0412 14.2278 16.0411 14.2278 16.041 14.2278C15.9889 14.2279 15.9448 14.2579 15.9223 14.2995L15.9221 14.2997L14.9345 16.1326L15.0177 16.1777C15.014 16.1561 15.0175 16.1334 15.0283 16.1135L15.9741 14.3581C15.9785 14.3501 15.9839 14.3427 15.99 14.3363C15.9901 14.3363 15.9901 14.3363 15.9901 14.3363C16.0039 14.3219 16.0217 14.312 16.0412 14.3078M16.0412 14.3078C16.0412 14.3078 16.0412 14.3078 16.0412 14.3078M19.0072 12.9213L19.0073 13.0206M19.0072 12.9213L19.0065 13.0213C19.0068 13.0211 19.007 13.0209 19.0073 13.0206M19.0072 12.9213C19.0072 12.9213 19.0072 12.9213 19.0072 12.9213C19.0073 12.9213 19.0073 12.9213 19.0073 12.9213V13.0206L19.0072 12.9213ZM19.0073 13.0206L19.0073 13.0213L19.0073 13.0206ZM19.1221 13.199L19.6939 14.2835L19.7221 14.3371C19.7234 14.3396 19.7244 14.3423 19.7252 14.345C19.7262 14.3415 19.727 14.3379 19.7276 14.3343C19.7276 14.3343 19.7276 14.3342 19.7276 14.3342C19.7312 14.313 19.7278 14.2908 19.7174 14.2711L19.1524 13.1989M19.1221 13.199L21.2324 13.1963L21.1726 13.1964L21.1442 13.1437L21.1908 13.1186M19.1221 13.199L19.1524 13.1989M19.1221 13.199L21.2141 13.1186L21.1908 13.1186M19.1524 13.1989L19.2351 13.1988L19.1941 13.121M19.1524 13.1989L19.1114 13.1211L19.1941 13.121M19.1941 13.121L21.1908 13.1186M19.1941 13.121L19.1824 13.0989L21.2021 13.0964L21.2089 13.1089L21.1908 13.1186M21.2293 16.2609C21.2317 16.2613 21.2341 16.2616 21.2366 16.2618C21.2366 16.2618 21.2366 16.2618 21.2366 16.2618L21.2366 16.2609C21.2366 16.2609 21.2366 16.2609 21.2366 16.2609C21.2364 16.2609 21.2363 16.2609 21.2362 16.2609H21.2358H21.2293ZM21.2293 16.2609H21.2279H21.2293ZM22.7158 16.061L21.2543 16.0621C21.2442 16.0607 21.237 16.0609 21.236 16.0609L21.2358 16.0609H15.2838L16.122 14.5054L19.6911 14.4951C19.6911 14.4951 19.6912 14.4951 19.6912 14.4951L19.6914 14.4951L19.6911 14.3961C19.6915 14.3958 19.6919 14.3955 19.6924 14.3951C19.7045 14.3946 19.7162 14.3874 19.7221 14.3758L22.7158 16.061ZM21.1384 16.1383H15.2421H21.1384ZM15.2004 16.0609L16.0623 14.4612L15.2004 16.0609ZM16.1031 14.4276L19.6293 14.4178C19.652 14.4177 19.6737 14.4099 19.6911 14.3961L16.1031 14.4276Z" fill="#FCFCFC" stroke="white" stroke-width="0.2" stroke-linejoin="round"/>
<path d="M14.9517 16.1407L14.9193 16.1232L14.9194 16.123C14.8935 16.1706 14.8935 16.2291 14.9196 16.2767C14.9454 16.3238 14.9956 16.3577 15.0542 16.3577H21.2174C21.2199 16.358 21.2222 16.3582 21.2243 16.3584C21.2285 16.3589 21.2328 16.3592 21.237 16.3592L22.946 16.3581C22.946 16.3581 22.946 16.3581 22.9461 16.3581C23.0054 16.358 23.055 16.3238 23.0806 16.2771C23.1067 16.2295 23.1068 16.171 23.0808 16.1233L15.0853 16.2803C15.0746 16.2803 15.0641 16.2786 15.0542 16.2753C15.032 16.2681 15.0127 16.2531 15.0001 16.2326C14.9999 16.2323 14.9996 16.2319 14.9994 16.2316C14.9994 16.2315 14.9994 16.2314 14.9993 16.2314C14.9993 16.2314 14.9993 16.2314 14.9993 16.2314C14.9868 16.2102 14.9826 16.1856 14.987 16.1621L14.9507 16.1425L14.9509 16.1421L14.9517 16.1407ZM14.9517 16.1407L14.9519 16.1403M14.9517 16.1407L14.9874 16.1599C14.9873 16.1603 14.9872 16.1607 14.9871 16.1611L14.9519 16.1403M19.4748 14.1988L19.516 14.1987L18.9503 13.1264C18.9458 13.1178 18.9426 13.1088 18.9407 13.0996C18.9406 13.0989 18.9405 13.0982 18.9403 13.0976C18.9403 13.0975 18.9403 13.0975 18.9403 13.0974C18.9362 13.0744 18.9402 13.0503 18.9522 13.0295L18.904 13.0042C18.9046 13.0031 18.9051 13.0021 18.9057 13.001L18.8734 12.9833C18.8735 12.9832 18.8736 12.983 18.8736 12.9829C18.8737 12.9828 18.8738 12.9826 18.8739 12.9825L18.906 13.0005C18.9263 12.9649 18.9642 12.9412 19.0076 12.941L19.0076 12.9027L19.0076 12.9027C19.0076 12.9027 19.0077 12.9027 19.0077 12.9027L21.2531 12.9L21.2532 12.9C21.3126 12.9 21.3622 12.9342 21.3878 12.981L21.3882 12.9816L21.3882 12.9816L23.0806 16.123L18.9536 13.0272C18.9534 13.0275 18.9533 13.0278 18.9531 13.0281C18.953 13.0282 18.9529 13.0284 18.9529 13.0285L18.9053 13.0018C18.8845 13.0389 18.886 13.0822 18.904 13.1165L18.9041 13.1167L18.905 13.1184L18.905 13.1184L19.4748 14.1988ZM19.4748 14.1988L19.4952 14.2376L19.4536 14.2377M19.4748 14.1988L19.4331 14.1989L19.4536 14.2377M19.4536 14.2377L19.4738 14.276L16.0626 14.2859H16.0624H16.0521C16.0487 14.2859 16.0453 14.286 16.042 14.2864V14.2476L19.4536 14.2377ZM16.0418 14.2864L16.0417 14.2476L16.0418 14.2476C16.0417 14.2476 16.0417 14.2476 16.0416 14.2476M16.0418 14.2864L16.0415 14.2085C16.0415 14.2085 16.0416 14.2085 16.0416 14.2085V14.2476M16.0418 14.2864C16.0417 14.2864 16.0417 14.2864 16.0416 14.2864M16.0418 14.2864L16.0416 14.2864M16.0416 14.2476V14.2864M16.0416 14.2476C16.0416 14.2476 16.0415 14.2476 16.0414 14.2476M14.9519 16.1403L14.9874 16.1597C14.9894 16.1505 14.9926 16.1414 14.9973 16.1329L15.964 14.3384C15.9661 14.3346 15.9685 14.3309 15.971 14.3273C15.9712 14.3271 15.9714 14.3268 15.9716 14.3265C15.9718 14.3262 15.9721 14.3258 15.9724 14.3255C15.9724 14.3254 15.9724 14.3254 15.9725 14.3253C15.9891 14.3035 16.0141 14.2893 16.0416 14.2864L16.0414 14.2476M14.9519 16.1403L15.9384 14.3098L15.9392 14.3084L15.9392 14.3084C15.9393 14.3082 15.9394 14.308 15.9395 14.3078C15.9396 14.3077 15.9397 14.3075 15.9397 14.3074C15.958 14.2756 15.9941 14.2478 16.0414 14.2476M16.0414 14.2476L16.0416 14.2864M22.9439 16.1994L22.9425 16.1986L22.9439 16.1994ZM22.9439 16.1994L22.9442 16.1996L22.9439 16.1994ZM19.0077 12.9846C18.9855 12.9919 18.9662 13.0068 18.9537 13.0272L19.0077 12.9846ZM19.0077 12.9846V12.941C19.0078 12.941 19.0079 12.941 19.0079 12.941L19.008 12.9845C19.0079 12.9846 19.0078 12.9846 19.0077 12.9846ZM22.6847 16.0417L21.2557 16.0428C21.2462 16.0415 21.2391 16.0416 21.2368 16.0416C21.2365 16.0416 21.2364 16.0416 21.2362 16.0416H15.3156L16.1332 14.5244L19.6921 14.5141L19.6921 14.5141L19.6938 14.5141C19.7503 14.5129 19.7999 14.4809 19.8261 14.4331L19.8261 14.4331L19.8268 14.4317C19.8516 14.3848 19.8516 14.3278 19.8268 14.2808C19.8268 14.2808 19.8268 14.2808 19.8268 14.2808L19.2665 13.2178L21.1625 13.2157L22.6847 16.0417Z" fill="white" stroke="white" stroke-width="0.2" stroke-linejoin="round"/>
<path d="M19.0098 19.4804C19.0595 19.4784 19.1017 19.4495 19.1238 19.4088L19.1238 19.4088C19.1464 19.3671 19.1464 19.3165 19.1238 19.2748L19.1236 19.2744L18.5186 18.1693H21.9593C22.0113 18.1693 22.0558 18.1398 22.0786 18.0976L22.0788 18.0974L23.0649 16.2668C23.065 16.2667 23.065 16.2667 23.065 16.2666M19.0098 19.4804L23.065 16.2666M19.0098 19.4804C19.0082 19.4805 19.0067 19.4805 19.0051 19.4805H19.0051C19.005 19.4805 19.0048 19.4805 19.0046 19.4805C19.0046 19.4805 19.0045 19.4805 19.0044 19.4805C19.0043 19.4805 19.0043 19.4805 19.0042 19.4805L16.7499 19.4797C16.7499 19.4797 16.7499 19.4797 16.7499 19.4797C16.6979 19.4797 16.6534 19.4502 16.6306 19.408L16.6305 19.4079L14.9345 16.2668C14.9345 16.2668 14.9345 16.2667 14.9345 16.2667M19.0098 19.4804L14.9345 16.2667M23.065 16.2666C23.0875 16.2249 23.0875 16.1745 23.0649 16.1328C23.0421 16.0907 22.9976 16.0611 22.9456 16.0611H15.0539C15.0018 16.0611 14.9574 16.0907 14.9345 16.1328C14.9119 16.1745 14.9119 16.225 14.9345 16.2667M23.065 16.2666L14.9345 16.2667M22.7161 16.3385H15.2839L16.8301 19.2024L18.7732 19.2031L18.1683 18.098L18.1681 18.0976C18.1455 18.0559 18.1455 18.0053 18.1681 17.9636L22.7161 16.3385ZM22.7161 16.3385L21.8794 17.8919H18.2875C18.2354 17.8919 18.191 17.9215 18.1681 17.9636L22.7161 16.3385Z" fill="#FAFCFC" stroke="white" stroke-width="0.2" stroke-linejoin="round"/>
<mask id="path-12-outside-1_341_22029" maskUnits="userSpaceOnUse" x="14" y="15.1416" width="10" height="5" fill="black">
<rect fill="white" x="14" y="15.1416" width="10" height="5"/>
<path d="M19.0055 19.3997L16.7503 19.3989C16.7311 19.3989 16.7131 19.3877 16.7033 19.3699L15.0073 16.2287C14.9976 16.2109 14.9976 16.1884 15.0073 16.1706C15.0171 16.1528 15.0351 16.1416 15.0542 16.1416H22.946C22.9651 16.1416 22.9832 16.1528 22.9929 16.1706C23.0027 16.1884 23.0027 16.2109 22.9929 16.2287L22.0066 18.0594C21.9969 18.0772 21.9788 18.0885 21.9597 18.0885H18.3821L19.0521 19.3122C19.0618 19.33 19.0618 19.3525 19.0521 19.3702C19.0424 19.388 19.0243 19.3993 19.0052 19.3993L19.0055 19.3997ZM22.9463 16.1803H15.0542C15.0477 16.1803 15.042 16.1842 15.0387 16.19C15.0355 16.1958 15.0355 16.2035 15.0387 16.2093L16.7348 19.3505C16.738 19.3563 16.7438 19.3602 16.7503 19.3602L19.0055 19.361C19.012 19.361 19.0182 19.3571 19.0211 19.3513C19.0243 19.3451 19.0243 19.3378 19.0211 19.3319L18.3189 18.0498H21.9597C21.9662 18.0498 21.972 18.0459 21.9752 18.0401L22.9615 16.2093C22.9648 16.2035 22.9648 16.1958 22.9615 16.19C22.9583 16.1842 22.9525 16.1803 22.946 16.1803H22.9463ZM18.9741 19.3223L16.7607 19.3215L16.7557 19.3118L15.0857 16.219H22.9149L21.9496 18.0107H18.2875C18.281 18.0107 18.2752 18.0146 18.2719 18.0204C18.2687 18.0266 18.2687 18.0339 18.2719 18.0397L18.9741 19.3219V19.3223ZM16.7817 19.2828L18.9109 19.2836L18.2409 18.0598C18.2312 18.042 18.2312 18.0196 18.2409 18.0018C18.2506 17.9836 18.2687 17.9728 18.2878 17.9728H21.929L22.8528 16.2581H15.1481L16.7813 19.2832L16.7817 19.2828Z"/>
</mask>
<path d="M19.0055 19.3997L16.7503 19.3989C16.7311 19.3989 16.7131 19.3877 16.7033 19.3699L15.0073 16.2287C14.9976 16.2109 14.9976 16.1884 15.0073 16.1706C15.0171 16.1528 15.0351 16.1416 15.0542 16.1416H22.946C22.9651 16.1416 22.9832 16.1528 22.9929 16.1706C23.0027 16.1884 23.0027 16.2109 22.9929 16.2287L22.0066 18.0594C21.9969 18.0772 21.9788 18.0885 21.9597 18.0885H18.3821L19.0521 19.3122C19.0618 19.33 19.0618 19.3525 19.0521 19.3702C19.0424 19.388 19.0243 19.3993 19.0052 19.3993L19.0055 19.3997ZM22.9463 16.1803H15.0542C15.0477 16.1803 15.042 16.1842 15.0387 16.19C15.0355 16.1958 15.0355 16.2035 15.0387 16.2093L16.7348 19.3505C16.738 19.3563 16.7438 19.3602 16.7503 19.3602L19.0055 19.361C19.012 19.361 19.0182 19.3571 19.0211 19.3513C19.0243 19.3451 19.0243 19.3378 19.0211 19.3319L18.3189 18.0498H21.9597C21.9662 18.0498 21.972 18.0459 21.9752 18.0401L22.9615 16.2093C22.9648 16.2035 22.9648 16.1958 22.9615 16.19C22.9583 16.1842 22.9525 16.1803 22.946 16.1803H22.9463ZM18.9741 19.3223L16.7607 19.3215L16.7557 19.3118L15.0857 16.219H22.9149L21.9496 18.0107H18.2875C18.281 18.0107 18.2752 18.0146 18.2719 18.0204C18.2687 18.0266 18.2687 18.0339 18.2719 18.0397L18.9741 19.3219V19.3223ZM16.7817 19.2828L18.9109 19.2836L18.2409 18.0598C18.2312 18.042 18.2312 18.0196 18.2409 18.0018C18.2506 17.9836 18.2687 17.9728 18.2878 17.9728H21.929L22.8528 16.2581H15.1481L16.7813 19.2832L16.7817 19.2828Z" fill="white"/>
<path d="M19.0055 19.3997L19.0055 19.5997C19.0851 19.5997 19.1572 19.5524 19.1889 19.4794C19.2207 19.4064 19.2061 19.3214 19.1518 19.2632L19.0055 19.3997ZM16.7503 19.3989L16.7503 19.1989H16.7503V19.3989ZM16.7033 19.3699L16.5274 19.4649L16.5279 19.4659L16.7033 19.3699ZM15.0073 16.2287L15.1833 16.1336L15.1827 16.1326L15.0073 16.2287ZM22.9929 16.2287L22.8175 16.1326L22.8168 16.1338L22.9929 16.2287ZM22.0066 18.0594L22.182 18.1555L22.1827 18.1543L22.0066 18.0594ZM18.3821 18.0885V17.8885C18.3114 17.8885 18.246 17.9257 18.21 17.9865C18.174 18.0473 18.1727 18.1225 18.2066 18.1845L18.3821 18.0885ZM19.0521 19.3122L18.8767 19.4083L18.8767 19.4083L19.0521 19.3122ZM19.0052 19.3993V19.1993C18.9255 19.1993 18.8535 19.2465 18.8217 19.3195C18.79 19.3926 18.8046 19.4775 18.8589 19.5357L19.0052 19.3993ZM22.9463 16.3803C23.0568 16.3803 23.1463 16.2907 23.1463 16.1803C23.1463 16.0698 23.0568 15.9803 22.9463 15.9803V16.3803ZM15.0387 16.2093L15.2147 16.1143L15.2132 16.1116L15.0387 16.2093ZM16.7348 19.3505L16.5588 19.4455L16.5602 19.4482L16.7348 19.3505ZM16.7503 19.3602L16.7503 19.1602H16.7503V19.3602ZM19.0055 19.361L19.0055 19.561H19.0055V19.361ZM19.0211 19.3513L18.8439 19.2583L18.842 19.2622L19.0211 19.3513ZM19.0211 19.3319L18.8456 19.428L18.8465 19.4296L19.0211 19.3319ZM18.3189 18.0498V17.8498C18.2482 17.8498 18.1828 17.887 18.1468 17.9478C18.1108 18.0086 18.1095 18.0839 18.1435 18.1458L18.3189 18.0498ZM21.9752 18.0401L22.1498 18.1378L22.1513 18.135L21.9752 18.0401ZM22.9615 16.2093L22.787 16.1116L22.7854 16.1145L22.9615 16.2093ZM22.946 15.9803C22.8355 15.9803 22.746 16.0698 22.746 16.1803C22.746 16.2907 22.8355 16.3803 22.946 16.3803V15.9803ZM18.9741 19.3223L18.9741 19.5223C19.0271 19.5223 19.078 19.5012 19.1155 19.4637C19.153 19.4262 19.1741 19.3753 19.1741 19.3223H18.9741ZM16.7607 19.3215L16.5835 19.4141C16.618 19.4801 16.6862 19.5215 16.7607 19.5215L16.7607 19.3215ZM16.7557 19.3118L16.933 19.2192L16.9317 19.2168L16.7557 19.3118ZM15.0857 16.219V16.019C15.0152 16.019 14.95 16.056 14.9139 16.1165C14.8778 16.177 14.8762 16.252 14.9097 16.314L15.0857 16.219ZM22.9149 16.219L23.091 16.3138C23.1244 16.2519 23.1227 16.1769 23.0867 16.1164C23.0506 16.056 22.9853 16.019 22.9149 16.019V16.219ZM21.9496 18.0107V18.2107C22.0231 18.2107 22.0908 18.1703 22.1257 18.1056L21.9496 18.0107ZM18.2719 18.0204L18.0974 17.9226L18.0949 17.9274L18.2719 18.0204ZM18.2719 18.0397L18.4474 17.9436L18.4465 17.942L18.2719 18.0397ZM18.9741 19.3219H19.1741C19.1741 19.2883 19.1657 19.2553 19.1495 19.2258L18.9741 19.3219ZM16.7817 19.2828L16.7818 19.0828C16.7263 19.0828 16.6732 19.1058 16.6354 19.1464L16.7817 19.2828ZM18.9109 19.2836L18.9109 19.4836C18.9815 19.4836 19.047 19.4464 19.083 19.3856C19.119 19.3248 19.1203 19.2495 19.0864 19.1875L18.9109 19.2836ZM18.2409 18.0598L18.4163 17.9638L18.4163 17.9638L18.2409 18.0598ZM18.2409 18.0018L18.4163 18.0979L18.4172 18.0963L18.2409 18.0018ZM21.929 17.9728V18.1728C22.0026 18.1728 22.0702 18.1324 22.1051 18.0676L21.929 17.9728ZM22.8528 16.2581L23.0289 16.3529C23.0623 16.2909 23.0607 16.216 23.0246 16.1555C22.9885 16.0951 22.9232 16.0581 22.8528 16.0581V16.2581ZM15.1481 16.2581V16.0581C15.0777 16.0581 15.0124 16.0951 14.9763 16.1556C14.9403 16.2161 14.9387 16.2911 14.9721 16.3531L15.1481 16.2581ZM16.7813 19.2832L16.6053 19.3782C16.6359 19.4349 16.692 19.4734 16.7559 19.4816C16.8198 19.4898 16.8837 19.4667 16.9276 19.4196L16.7813 19.2832ZM19.0056 19.1997L16.7503 19.1989L16.7502 19.5989L19.0055 19.5997L19.0056 19.1997ZM16.7503 19.1989C16.8102 19.1989 16.8564 19.2329 16.8788 19.2738L16.5279 19.4659C16.5698 19.5424 16.6521 19.5989 16.7503 19.5989V19.1989ZM16.8793 19.2748L15.1833 16.1336L14.8313 16.3237L16.5274 19.4649L16.8793 19.2748ZM15.1827 16.1326C15.2058 16.1746 15.2058 16.2246 15.1827 16.2667L14.8319 16.0745C14.7894 16.1522 14.7894 16.2471 14.8319 16.3247L15.1827 16.1326ZM15.1827 16.2667C15.1603 16.3076 15.1141 16.3416 15.0542 16.3416V15.9416C14.9561 15.9416 14.8738 15.9981 14.8319 16.0745L15.1827 16.2667ZM15.0542 16.3416H22.946V15.9416H15.0542V16.3416ZM22.946 16.3416C22.8861 16.3416 22.8399 16.3076 22.8175 16.2667L23.1683 16.0745C23.1264 15.9981 23.0441 15.9416 22.946 15.9416V16.3416ZM22.8175 16.2667C22.7945 16.2246 22.7945 16.1746 22.8175 16.1326L23.1683 16.3247C23.2109 16.2471 23.2109 16.1522 23.1683 16.0745L22.8175 16.2667ZM22.8168 16.1338L21.8306 17.9646L22.1827 18.1543L23.169 16.3235L22.8168 16.1338ZM21.8312 17.9634C21.8536 17.9225 21.8998 17.8885 21.9597 17.8885V18.2885C22.0579 18.2885 22.1402 18.232 22.182 18.1555L21.8312 17.9634ZM21.9597 17.8885H18.3821V18.2885H21.9597V17.8885ZM18.2066 18.1845L18.8767 19.4083L19.2275 19.2162L18.5575 17.9924L18.2066 18.1845ZM18.8767 19.4083C18.8537 19.3662 18.8537 19.3162 18.8767 19.2742L19.2275 19.4663C19.27 19.3887 19.27 19.2938 19.2275 19.2161L18.8767 19.4083ZM18.8767 19.2742C18.8991 19.2333 18.9453 19.1993 19.0052 19.1993V19.5993C19.1033 19.5993 19.1856 19.5428 19.2275 19.4663L18.8767 19.2742ZM18.8589 19.5357L18.8593 19.5361L19.1518 19.2632L19.1514 19.2628L18.8589 19.5357ZM22.9463 15.9803H15.0542V16.3803H22.9463V15.9803ZM15.0542 15.9803C14.9645 15.9803 14.8972 16.0333 14.8642 16.0923L15.2132 16.2877C15.1867 16.335 15.131 16.3803 15.0542 16.3803V15.9803ZM14.8642 16.0923C14.827 16.1588 14.827 16.2405 14.8642 16.307L15.2132 16.1116C15.244 16.1665 15.244 16.2328 15.2132 16.2877L14.8642 16.0923ZM14.8627 16.3043L16.5588 19.4455L16.9107 19.2555L15.2147 16.1143L14.8627 16.3043ZM16.5602 19.4482C16.5932 19.5072 16.6606 19.5602 16.7503 19.5602V19.1602C16.827 19.1602 16.8828 19.2055 16.9093 19.2528L16.5602 19.4482ZM16.7502 19.5602L19.0055 19.561L19.0056 19.161L16.7503 19.1602L16.7502 19.5602ZM19.0055 19.561C19.0892 19.561 19.164 19.513 19.2001 19.4404L18.842 19.2622C18.8723 19.2012 18.9348 19.161 19.0055 19.161V19.561ZM19.1981 19.4442C19.2309 19.3818 19.2338 19.3026 19.1956 19.2342L18.8465 19.4296C18.8148 19.3729 18.8177 19.3084 18.844 19.2583L19.1981 19.4442ZM19.1965 19.2359L18.4943 17.9537L18.1435 18.1458L18.8456 19.428L19.1965 19.2359ZM18.3189 18.2498H21.9597V17.8498H18.3189V18.2498ZM21.9597 18.2498C22.0494 18.2498 22.1167 18.1968 22.1497 18.1378L21.8007 17.9424C21.8272 17.8951 21.883 17.8498 21.9597 17.8498V18.2498ZM22.1513 18.135L23.1376 16.3042L22.7854 16.1145L21.7991 17.9452L22.1513 18.135ZM23.136 16.307C23.1733 16.2405 23.1733 16.1588 23.136 16.0923L22.787 16.2877C22.7563 16.2328 22.7563 16.1665 22.787 16.1116L23.136 16.307ZM23.136 16.0923C23.103 16.0333 23.0357 15.9803 22.946 15.9803V16.3803C22.8693 16.3803 22.8135 16.335 22.787 16.2877L23.136 16.0923ZM22.946 16.3803H22.9463V15.9803H22.946V16.3803ZM18.9742 19.1223L16.7608 19.1215L16.7607 19.5215L18.9741 19.5223L18.9742 19.1223ZM16.938 19.2289L16.933 19.2192L16.5784 19.4045L16.5835 19.4141L16.938 19.2289ZM16.9317 19.2168L15.2616 16.124L14.9097 16.314L16.5797 19.4069L16.9317 19.2168ZM15.0857 16.419H22.9149V16.019H15.0857V16.419ZM22.7389 16.1241L21.7735 17.9158L22.1257 18.1056L23.091 16.3138L22.7389 16.1241ZM21.9496 17.8107H18.2875V18.2107H21.9496V17.8107ZM18.2875 17.8107C18.1978 17.8107 18.1304 17.8637 18.0974 17.9227L18.4465 18.1181C18.42 18.1654 18.3642 18.2107 18.2875 18.2107V17.8107ZM18.0949 17.9274C18.0621 17.9898 18.0592 18.0691 18.0974 18.1374L18.4465 17.942C18.4782 17.9988 18.4753 18.0633 18.449 18.1133L18.0949 17.9274ZM18.0965 18.1358L18.7987 19.418L19.1495 19.2258L18.4474 17.9436L18.0965 18.1358ZM18.7741 19.3219V19.3223H19.1741V19.3219H18.7741ZM16.7816 19.4828L18.9109 19.4836L18.911 19.0836L16.7818 19.0828L16.7816 19.4828ZM19.0864 19.1875L18.4163 17.9638L18.0655 18.1559L18.7355 19.3796L19.0864 19.1875ZM18.4163 17.9638C18.4394 18.0058 18.4394 18.0558 18.4163 18.0979L18.0655 17.9057C18.023 17.9834 18.023 18.0783 18.0655 18.1559L18.4163 17.9638ZM18.4172 18.0963C18.3937 18.1401 18.3457 18.1728 18.2878 18.1728V17.7728C18.1917 17.7728 18.1076 17.8271 18.0646 17.9073L18.4172 18.0963ZM18.2878 18.1728H21.929V17.7728H18.2878V18.1728ZM22.1051 18.0676L23.0289 16.3529L22.6768 16.1632L21.7529 17.8779L22.1051 18.0676ZM22.8528 16.0581H15.1481V16.4581H22.8528V16.0581ZM14.9721 16.3531L16.6053 19.3782L16.9573 19.1882L15.3241 16.163L14.9721 16.3531ZM16.9276 19.4196L16.928 19.4192L16.6354 19.1464L16.635 19.1468L16.9276 19.4196Z" fill="white" mask="url(#path-12-outside-1_341_22029)"/>
</svg>
