<svg width="24" height="28" viewBox="0 0 24 28" fill="none" xmlns="http://www.w3.org/2000/svg">
<g clip-path="url(#clip0_341_22001)">
<path d="M5.64648 9.96921L8.5539 8.34072C9.67945 7.70943 10.8017 7.07411 11.933 6.45247C11.9918 6.42268 12.0564 6.4056 12.1226 6.4024C12.1887 6.39921 12.2548 6.40998 12.3162 6.43398C14.3952 7.60327 16.4667 8.78624 18.5399 9.9668C18.5729 9.9887 18.6047 10.0123 18.6351 10.0376C18.5523 10.0939 18.4869 10.1477 18.4116 10.1904C16.3768 11.3538 14.342 12.5182 12.3071 13.6838C12.1151 13.794 11.9835 13.8028 11.7857 13.6838C9.8276 12.4928 7.86036 11.3146 5.89643 10.1333C5.82773 10.0898 5.76152 10.044 5.64648 9.96921Z" fill="#002568"/>
<path d="M12.6383 21.6085V21.2659C12.6383 19.2305 12.6383 17.1951 12.6334 15.1589C12.6234 15.0672 12.6433 14.9747 12.6902 14.8945C12.7371 14.8143 12.8087 14.7504 12.8949 14.7118C14.8905 13.5821 16.8818 12.4461 18.8686 11.3036C18.9812 11.2393 19.097 11.1805 19.2443 11.1025C19.251 11.2344 19.2601 11.3293 19.2601 11.4242C19.2601 13.5103 19.2601 15.5964 19.2659 17.6816C19.2758 17.7735 19.2555 17.866 19.2079 17.9459C19.1603 18.0258 19.0879 18.089 19.001 18.1264C16.9662 19.2345 14.9377 20.3484 12.9156 21.4678C12.8444 21.5072 12.7707 21.541 12.6383 21.6085Z" fill="#002568"/>
<path d="M5.05878 11.0352C5.19202 11.1075 5.28058 11.151 5.36499 11.2016C7.2961 12.364 9.2272 13.5247 11.1583 14.6838C11.3553 14.8012 11.4397 14.925 11.438 15.1575C11.4264 17.1953 11.4314 19.2323 11.4314 21.2693V21.5749C11.3501 21.5466 11.2705 21.5138 11.1931 21.4768C9.21671 20.3724 7.2423 19.265 5.26982 18.1547C5.21728 18.1235 5.17222 18.0817 5.13767 18.0322C5.10312 17.9827 5.07989 17.9266 5.06954 17.8676C5.0563 15.6102 5.05878 13.3528 5.05878 11.0352Z" fill="#002568"/>
<path d="M22.7012 9.65487L23.734 9.56641V18.4479L22.7012 18.3579V9.65487Z" fill="#002568"/>
<path d="M1.49454 18.395H0.46582V9.61719H1.49454V18.395Z" fill="#002568"/>
<path d="M3.0383 7.25449L2.56738 6.316L10.0325 2.11328L10.6209 2.9794L3.0383 7.25449Z" fill="#002568"/>
<path d="M10.5871 25.0639L10.021 25.9485L2.41602 21.8568L2.9821 20.9722L10.5871 25.0639Z" fill="#002568"/>
<path d="M21.479 6.26602L20.9824 7.18602L13.4453 2.97687L14.0296 2.10352L21.479 6.26602Z" fill="#002568"/>
<path d="M14.0373 25.9285C13.8495 25.6398 13.6707 25.3656 13.4688 25.0535L21 20.9248C21.1879 21.2304 21.3601 21.5103 21.5471 21.8159L14.0373 25.9285Z" fill="#002568"/>
<path d="M13.0138 1.46998C13.0136 1.59558 12.9879 1.7199 12.9382 1.83584C12.8885 1.95177 12.8157 2.05705 12.7241 2.14564C12.6325 2.23422 12.5238 2.30438 12.4042 2.35211C12.2846 2.39983 12.1566 2.42417 12.0273 2.42375C11.8955 2.42324 11.7651 2.39724 11.6437 2.34725C11.5223 2.29727 11.4124 2.22429 11.3203 2.1326C11.2283 2.0409 11.1559 1.93231 11.1075 1.81316C11.0591 1.69401 11.0356 1.56669 11.0383 1.43861C11.0444 1.18507 11.1538 0.944232 11.3425 0.769016C11.5312 0.593799 11.7837 0.498531 12.0447 0.504141C12.1739 0.504755 12.3016 0.530336 12.4206 0.579392C12.5395 0.628447 12.6472 0.699998 12.7374 0.789881C12.8276 0.879765 12.8984 0.986183 12.9459 1.10294C12.9934 1.2197 13.0165 1.34447 13.0138 1.46998V1.46998Z" fill="#002568"/>
<path d="M13.0034 26.5463C13.0023 26.799 12.8984 27.0411 12.7144 27.2198C12.5304 27.3985 12.2811 27.4992 12.021 27.5C11.8921 27.4987 11.7647 27.4726 11.6462 27.4233C11.5277 27.3741 11.4204 27.3026 11.3303 27.2129C11.2403 27.1233 11.1694 27.0173 11.1216 26.9009C11.0738 26.7846 11.0501 26.6602 11.0518 26.535C11.0529 26.282 11.1571 26.0398 11.3415 25.8612C11.5259 25.6826 11.7755 25.5822 12.0359 25.582C12.1649 25.5824 12.2926 25.6078 12.4114 25.6567C12.5302 25.7056 12.6378 25.777 12.7279 25.8668C12.818 25.9566 12.8887 26.0629 12.936 26.1796C12.9833 26.2963 13.0062 26.4209 13.0034 26.5463V26.5463Z" fill="#002568"/>
<path d="M23.023 8.59832C22.7632 8.596 22.5148 8.49436 22.3316 8.3154C22.1484 8.13645 22.045 7.89458 22.0439 7.64214C22.0481 7.38885 22.1545 7.1473 22.3403 6.96961C22.5261 6.79192 22.7764 6.69235 23.0371 6.69238C23.2919 6.70072 23.5337 6.80339 23.7131 6.97936C23.8925 7.15533 23.9959 7.39129 24.0021 7.63892C24.0027 7.89217 23.9001 8.13536 23.7166 8.31519C23.533 8.49502 23.2836 8.59683 23.023 8.59832Z" fill="#002568"/>
<path d="M0.956722 8.59832C0.701915 8.59065 0.460036 8.48751 0.281712 8.31048C0.103388 8.13346 0.00244198 7.89627 0 7.64857C0.00407468 7.39565 0.109509 7.15425 0.293888 6.97569C0.478267 6.79713 0.727049 6.69549 0.987344 6.69238C1.24843 6.69703 1.49713 6.80141 1.6796 6.98293C1.86207 7.16445 1.96362 7.4085 1.96227 7.66224C1.95448 7.91523 1.84471 8.15512 1.65662 8.33022C1.46853 8.50532 1.21718 8.6016 0.956722 8.59832V8.59832Z" fill="#002568"/>
<path d="M0.986515 21.3182C0.726969 21.3166 0.478402 21.2163 0.294022 21.0388C0.109642 20.8613 0.00410402 20.6207 0 20.3685C0.00265426 20.1209 0.103695 19.8839 0.281997 19.7071C0.460299 19.5302 0.702057 19.4272 0.956722 19.4195C1.21675 19.4157 1.46782 19.5118 1.65523 19.687C1.84265 19.8621 1.95123 20.1022 1.95731 20.3548C1.95887 20.6073 1.85774 20.8502 1.67593 21.0306C1.49413 21.2111 1.24635 21.3144 0.986515 21.3182V21.3182Z" fill="#002568"/>
<path d="M23.0244 19.4185C23.2796 19.4205 23.5237 19.5197 23.7044 19.6947C23.8852 19.8698 23.9881 20.1066 23.9911 20.3545C23.9928 20.4801 23.969 20.6047 23.921 20.7212C23.873 20.8377 23.8018 20.9439 23.7114 21.0336C23.6211 21.1233 23.5133 21.1947 23.3944 21.2438C23.2755 21.2929 23.1478 21.3186 23.0186 21.3196C22.7638 21.3141 22.5209 21.2136 22.3402 21.0389C22.1595 20.8642 22.0548 20.6287 22.0479 20.3811C22.0472 20.1279 22.1494 19.8848 22.3323 19.7045C22.5152 19.5242 22.7639 19.4214 23.0244 19.4185Z" fill="#002568"/>
</g>
<defs>
<clipPath id="clip0_341_22001">
<rect width="24" height="27" fill="white" transform="translate(0 0.5)"/>
</clipPath>
</defs>
</svg>
