<svg width="36" height="34" viewBox="0 0 36 34" fill="none" xmlns="http://www.w3.org/2000/svg">
<g clip-path="url(#clip0_305_18002)">
<path d="M21.0909 0.00439453C28.8694 0.0273166 34.705 4.88134 35.8095 11.4927C36.9141 18.1041 33.1139 24.4339 26.6715 26.7195C26.448 26.8058 26.2576 26.9585 26.127 27.1562C23.2098 31.7624 18.9887 34.107 13.4626 33.9989C6.79085 33.868 1.0243 28.7356 0.135773 22.2716C-0.773914 15.6471 2.95279 9.60984 9.35735 7.31763C9.55329 7.23337 9.71699 7.09047 9.825 6.9094C12.5975 2.41995 16.6939 0.184497 21.0909 0.00439453ZM1.3138 20.2708C1.30712 27.1125 6.969 32.6989 13.9247 32.7142C15.5922 32.7208 17.2447 32.4049 18.7874 31.7846C20.3302 31.1644 21.7331 30.2518 22.9156 29.0993C24.0982 27.9469 25.0373 26.577 25.6791 25.0683C26.3209 23.5595 26.6528 21.9415 26.6559 20.3068C26.677 13.4815 20.9929 7.87431 14.0439 7.8634C7.01354 7.85575 1.32159 13.4007 1.3138 20.2708ZM11.6143 6.72275C16.8542 6.05583 21.3314 7.52611 24.7285 11.5255C28.1256 15.5248 28.7737 20.1082 27.158 25.0364C30.7612 23.6654 34.8909 19.331 34.6504 13.2479C34.5368 10.4282 33.4458 7.7308 31.5575 5.60089C29.6692 3.47099 27.0966 2.03591 24.2642 1.53253C18.7894 0.532694 13.7588 3.31063 11.6143 6.72275Z" fill="#002568" fill-opacity="0.7"/>
<path d="M21.3209 20.3298C21.3209 21.5152 21.3131 22.7006 21.3209 23.886C21.3323 24.0556 21.292 24.2247 21.2052 24.3718C21.1183 24.5189 20.9889 24.6374 20.8333 24.7123C18.7021 25.9093 16.5747 27.1129 14.451 28.323C14.3124 28.4133 14.1497 28.4615 13.9833 28.4615C13.8169 28.4615 13.6543 28.4133 13.5157 28.323C11.3801 27.1056 9.2404 25.8955 7.09664 24.6926C6.94868 24.6178 6.82647 24.5019 6.74528 24.3594C6.66409 24.217 6.62752 24.0542 6.64013 23.8914C6.64755 21.4806 6.64755 19.0694 6.64013 16.6579C6.63007 16.4951 6.6693 16.333 6.7529 16.192C6.8365 16.0511 6.96074 15.9374 7.11001 15.8654C9.24114 14.6669 11.3682 13.4623 13.4912 12.2514C13.6361 12.1584 13.8056 12.1089 13.9789 12.1089C14.1521 12.1089 14.3216 12.1584 14.4666 12.2514C16.5895 13.4608 18.7166 14.6655 20.8477 15.8654C21.1896 16.0575 21.3243 16.3184 21.3209 16.6983C21.3131 17.9055 21.3209 19.1182 21.3209 20.3298ZM8.52297 16.5782C10.3234 17.5977 12.0615 18.5866 13.8085 19.5581C13.9199 19.6181 14.1303 19.5843 14.2539 19.5177C15.2215 18.985 16.1779 18.4349 17.1377 17.8902L19.4526 16.5804C17.6388 15.5544 15.8784 14.5567 14.108 13.5678C14.0591 13.5514 14.0073 13.5453 13.9558 13.55C13.9044 13.5547 13.8546 13.5701 13.8096 13.5951C12.0671 14.5709 10.3279 15.5565 8.52297 16.5782ZM13.2863 26.6705C13.2996 26.614 13.3093 26.5568 13.3153 26.4991C13.3153 24.6883 13.3242 22.8785 13.3052 21.0677C13.2922 20.982 13.2606 20.9001 13.2123 20.8276C13.1641 20.7551 13.1004 20.6936 13.0258 20.6474C11.4591 19.7436 9.88361 18.8584 8.30808 17.9699C8.21789 17.9197 8.1199 17.8837 7.98295 17.8215C7.98295 19.7447 7.98295 21.62 7.99074 23.4974C7.99744 23.5535 8.01655 23.6075 8.04675 23.6555C8.07694 23.7036 8.11749 23.7446 8.16556 23.7757C9.85354 24.7363 11.5482 25.6892 13.2863 26.6705ZM14.6514 26.6803C14.7627 26.629 14.8062 26.6094 14.8518 26.5842C16.4852 25.6597 18.122 24.7407 19.751 23.7998C19.8201 23.7458 19.8765 23.6779 19.9165 23.6007C19.9564 23.5235 19.979 23.4387 19.9826 23.3522C19.9982 21.6058 19.9926 19.8681 19.9926 18.1249V17.7974C18.2111 18.8082 16.4941 19.7775 14.785 20.7566C14.7465 20.7899 14.7156 20.8309 14.6945 20.8768C14.6734 20.9227 14.6625 20.9725 14.6625 21.0229C14.6503 22.884 14.6514 24.7483 14.6514 26.6803Z" fill="#002568" fill-opacity="0.7"/>
</g>
<defs>
<clipPath id="clip0_305_18002">
<rect width="36" height="34" fill="white"/>
</clipPath>
</defs>
</svg>
