<svg width="50" height="50" viewBox="0 0 50 50" fill="none" xmlns="http://www.w3.org/2000/svg">
<path d="M25.1551 3.69557C36.8413 3.69557 46.4027 13.257 46.4027 24.9432C46.4027 36.6294 36.8413 46.1908 25.1551 46.1908C13.4689 46.1908 3.90748 36.6294 3.90748 24.9432C3.90748 13.257 13.4689 3.69557 25.1551 3.69557ZM25.1551 0.154297C11.5212 0.154297 0.366211 11.3093 0.366211 24.9432C0.366211 38.5771 11.5212 49.7321 25.1551 49.7321C38.789 49.7321 49.944 38.5771 49.944 24.9432C49.944 11.3093 38.789 0.154297 25.1551 0.154297Z" fill="#002568" fill-opacity="0.3"/>
<path d="M27.1945 26.8951L38.1484 26.9071C38.6287 26.907 39.0893 26.7162 39.4289 26.3766C39.7685 26.037 39.9593 25.5764 39.9593 25.0962C39.9594 24.6159 39.7686 24.1554 39.4291 23.8158C39.0895 23.4762 38.6289 23.2855 38.1487 23.2855L27.1948 23.299L27.2083 12.3451C27.2083 11.8649 27.0176 11.4043 26.678 11.0647C26.3384 10.7252 25.8779 10.5344 25.3976 10.5345C24.9174 10.5345 24.4568 10.7253 24.1172 11.0649C23.7776 11.4045 23.5868 11.8651 23.5867 12.3454L23.5987 23.2993L12.6448 23.2873C12.4067 23.2864 12.1708 23.3326 11.9506 23.4232C11.7305 23.5139 11.5305 23.6473 11.3621 23.8156C11.1938 23.984 11.0604 24.184 10.9697 24.4041C10.8791 24.6243 10.8329 24.8602 10.8338 25.0982C10.8329 25.3363 10.879 25.5722 10.9696 25.7923C11.0603 26.0125 11.1936 26.2125 11.3619 26.3808C11.5303 26.5491 11.7303 26.6825 11.9504 26.7731C12.1705 26.8637 12.4064 26.9099 12.6445 26.9089L23.5984 26.8954L23.5849 37.8493C23.5839 38.0874 23.6301 38.3233 23.7207 38.5434C23.8113 38.7635 23.9447 38.9635 24.113 39.1319C24.2813 39.3002 24.4813 39.4335 24.7015 39.5242C24.9216 39.6148 25.1575 39.6609 25.3956 39.66C25.6336 39.6609 25.8695 39.6147 26.0897 39.5241C26.3098 39.4334 26.5098 39.3 26.6782 39.1317C26.8465 38.9633 26.9799 38.7633 27.0706 38.5432C27.1612 38.323 27.2074 38.0871 27.2065 37.849L27.1945 26.8951Z" fill="#002568" fill-opacity="0.3"/>
</svg>
