<svg width="14" height="9" viewBox="0 0 14 9" fill="none" xmlns="http://www.w3.org/2000/svg">
<path fill-rule="evenodd" clip-rule="evenodd" d="M9.0065 0.260279C9.17058 0.0936224 9.39311 -1.98658e-07 9.62513 -1.88652e-07C9.85715 -1.78647e-07 10.0797 0.0936225 10.2438 0.260279L13.7438 3.81617C13.9078 3.98288 14 4.20895 14 4.44467C14 4.6804 13.9078 4.90647 13.7438 5.07318L10.2438 8.62907C10.0787 8.791 9.8577 8.8806 9.62828 8.87858C9.39885 8.87655 9.17939 8.78306 9.01715 8.61824C8.85492 8.45342 8.7629 8.23045 8.7609 7.99736C8.75891 7.76428 8.8471 7.53972 9.0065 7.37206L11.0129 5.33365L0.875011 5.33365C0.642944 5.33365 0.42038 5.23999 0.256284 5.07327C0.0921877 4.90656 -2.07386e-07 4.68044 -1.96939e-07 4.44467C-1.86492e-07 4.2089 0.0921877 3.98279 0.256285 3.81607C0.42038 3.64936 0.642944 3.5557 0.875011 3.5557L11.0129 3.5557L9.0065 1.51729C8.84246 1.35058 8.7503 1.12451 8.7503 0.888783C8.7503 0.653059 8.84246 0.426986 9.0065 0.260279Z" fill="#002568"/>
</svg>
