<svg width="11" height="12" viewBox="0 0 11 12" fill="none" xmlns="http://www.w3.org/2000/svg">
<path d="M5.70312 0.703125C2.77686 0.703125 0.40625 3.07407 0.40625 6C0.40625 8.92593 2.7772 11.2969 5.70312 11.2969C8.62939 11.2969 11 8.92593 11 6C11 3.07407 8.62905 0.703125 5.70312 0.703125ZM8.30475 4.332L7.43537 8.4287C7.37113 8.71918 7.19821 8.78957 6.95695 8.65288L5.63273 7.67689L4.99403 8.29201C4.92363 8.36241 4.86383 8.42221 4.72713 8.42221L4.82111 7.07441L7.2751 4.85724C7.38206 4.76327 7.25152 4.70995 7.11038 4.80393L4.0775 6.7132L2.77036 6.30517C2.48638 6.21563 2.47989 6.02119 2.83017 5.88449L7.93704 3.91508C8.1742 3.82965 8.38129 3.97283 8.3044 4.33166L8.30475 4.332Z" fill="#002568" fill-opacity="0.5"/>
</svg>
