<svg width="13" height="12" viewBox="0 0 13 12" fill="none" xmlns="http://www.w3.org/2000/svg">
<path d="M12.8516 2.16773C12.5129 2.67225 12.0843 3.12148 11.5866 3.48086C11.5935 3.58453 11.5935 3.69511 11.5935 3.80569C11.5935 7.15763 9.04283 11.021 4.38387 11.021C2.953 11.021 1.61891 10.5994 0.492188 9.88065C0.692647 9.90138 0.893107 9.9152 1.10048 9.9152C2.28941 9.9152 3.38157 9.50744 4.24562 8.83014C3.71706 8.81921 3.20511 8.6435 2.78128 8.32754C2.35745 8.01158 2.04291 7.57115 1.88158 7.06778C2.03365 7.09543 2.19264 7.11616 2.35854 7.11616C2.58665 7.11616 2.81475 7.0816 3.02213 7.02631C2.44881 6.90865 1.93362 6.59691 1.56342 6.14368C1.19321 5.69045 0.990649 5.12345 0.98988 4.53828V4.51063C1.3355 4.69724 1.7226 4.81473 2.13734 4.82855C1.7902 4.59573 1.50579 4.28098 1.30927 3.91211C1.11275 3.54325 1.01018 3.13165 1.01062 2.71372C1.01062 2.25067 1.13504 1.81526 1.35624 1.44206C2.60738 2.97634 4.47373 3.98538 6.58201 4.08905C6.54054 3.90245 6.51289 3.70893 6.51289 3.50851C6.51472 2.83701 6.7828 2.19363 7.25836 1.71946C7.73391 1.24528 8.37812 0.979001 9.04974 0.979004C9.78246 0.979004 10.4391 1.2831 10.9023 1.7807C11.476 1.66321 12.0221 1.45588 12.5129 1.16561C12.3193 1.75306 11.9184 2.25067 11.393 2.56167C11.8967 2.50663 12.3887 2.37374 12.8516 2.16773Z" fill="#002568" fill-opacity="0.5"/>
</svg>
